<svg xmlns="http://www.w3.org/2000/svg" xmlns:xlink="http://www.w3.org/1999/xlink" width="500" zoomAndPan="magnify" viewBox="0 0 375 374.999991" height="500" preserveAspectRatio="xMidYMid meet" version="1.0"><defs><filter x="0%" y="0%" width="100%" height="100%" id="5e4621adb2"><feColorMatrix values="0 0 0 0 1 0 0 0 0 1 0 0 0 0 1 0 0 0 1 0" color-interpolation-filters="sRGB"/></filter><clipPath id="f1141651ca"><path d="M 0 29.019531 L 375 29.019531 L 375 375 L 0 375 Z M 0 29.019531 " clip-rule="nonzero"/></clipPath><clipPath id="ea1c11a30c"><path d="M 111 29.019531 L 114 29.019531 L 114 72 L 111 72 Z M 111 29.019531 " clip-rule="nonzero"/></clipPath><mask id="428400ace5"><g filter="url(#5e4621adb2)"><rect x="-37.5" width="450" fill="#000000" y="-37.499999" height="449.999989" fill-opacity="0.5"/></g></mask><clipPath id="d57817710a"><path d="M 0.320312 1 L 16 1 L 16 20 L 0.320312 20 Z M 0.320312 1 " clip-rule="nonzero"/></clipPath><clipPath id="c57c6ffb35"><path d="M 0.320312 21 L 16 21 L 16 23 L 0.320312 23 Z M 0.320312 21 " clip-rule="nonzero"/></clipPath><clipPath id="ddb24c9028"><path d="M 0.320312 31 L 16 31 L 16 51 L 0.320312 51 Z M 0.320312 31 " clip-rule="nonzero"/></clipPath><clipPath id="68c536db5b"><path d="M 0.320312 52 L 16 52 L 16 54 L 0.320312 54 Z M 0.320312 52 " clip-rule="nonzero"/></clipPath><clipPath id="3166b76b51"><path d="M 0.320312 62 L 16 62 L 16 81 L 0.320312 81 Z M 0.320312 62 " clip-rule="nonzero"/></clipPath><clipPath id="c48fa02e41"><path d="M 0.320312 82 L 16 82 L 16 84.320312 L 0.320312 84.320312 Z M 0.320312 82 " clip-rule="nonzero"/></clipPath><clipPath id="d280f7e74a"><path d="M 26 82 L 41 82 L 41 84.320312 L 26 84.320312 Z M 26 82 " clip-rule="nonzero"/></clipPath><clipPath id="219fdb855b"><path d="M 51 82 L 67 82 L 67 84.320312 L 51 84.320312 Z M 51 82 " clip-rule="nonzero"/></clipPath><clipPath id="d22eca1ad9"><path d="M 76 82 L 92 82 L 92 84.320312 L 76 84.320312 Z M 76 82 " clip-rule="nonzero"/></clipPath><clipPath id="8c272dc78c"><rect x="0" width="92" y="0" height="85"/></clipPath></defs><rect x="-37.5" width="450" fill="#ffffff" y="-37.499999" height="449.999989" fill-opacity="1"/><rect x="-37.5" width="450" fill="#ffffff" y="-37.499999" height="449.999989" fill-opacity="1"/><g clip-path="url(#f1141651ca)"><path fill="#ffffff" d="M 0 29.019531 L 375 29.019531 L 375 404.019531 L 0 404.019531 Z M 0 29.019531 " fill-opacity="1" fill-rule="nonzero"/></g><path fill="#f9c302" d="M 67.773438 134.792969 C 65.800781 135.773438 63.855469 136.960938 62.230469 138.65625 C 60.332031 140.5 58.652344 142.679688 57.316406 145.113281 C 55.976562 147.539062 54.875 150.140625 54.082031 152.863281 C 53.28125 155.578125 52.75 158.402344 52.609375 161.25 C 53.21875 158.496094 54.042969 155.84375 54.96875 153.261719 C 55.921875 150.695312 57.035156 148.222656 58.339844 145.902344 C 62.632812 138.253906 88.527344 142.339844 89.640625 134.84375 C 90.0625 132 79.285156 128.253906 67.773438 134.792969 Z M 57.648438 133.109375 C 56.527344 135.082031 55.648438 137.234375 54.988281 139.464844 C 54.359375 141.710938 53.898438 144.019531 53.660156 146.351562 C 53.417969 148.683594 53.3125 151.042969 53.503906 153.375 C 53.589844 152.207031 53.671875 151.050781 53.828125 149.902344 C 53.949219 148.75 54.105469 147.605469 54.300781 146.472656 C 54.6875 144.203125 54.96875 141.875 55.785156 139.785156 C 59.042969 131.449219 76.203125 132.253906 76.242188 125.621094 C 76.257812 123.078125 68.351562 121.277344 61.042969 128.789062 C 59.75 130.023438 58.59375 131.472656 57.648438 133.109375 Z M 52.316406 154.359375 C 52.164062 150.898438 51.921875 147.433594 52.046875 143.976562 C 52.5625 129.726562 73.71875 112.796875 68.503906 104.789062 C 66.550781 101.789062 55.992188 107.964844 53.019531 124.273438 C 52.308594 127.296875 51.777344 130.386719 51.464844 133.511719 C 51.105469 136.984375 50.9375 140.484375 50.957031 143.980469 C 50.988281 147.480469 51.132812 150.972656 51.484375 154.445312 C 51.828125 157.914062 52.28125 161.371094 53.015625 164.753906 C 52.878906 163.015625 52.714844 161.289062 52.625 159.554688 C 52.496094 157.824219 52.394531 156.09375 52.316406 154.359375 Z M 49.945312 143.625 C 49.320312 141.011719 48.554688 138.441406 47.648438 135.941406 C 46.847656 133.6875 45.882812 131.515625 44.800781 129.441406 C 39.601562 118.023438 30.59375 116.0625 29.6875 118.792969 C 27.261719 126.074219 46.980469 134.171875 49.132812 143.890625 C 49.707031 146.492188 50.308594 149.085938 50.832031 151.707031 C 51.089844 153.015625 51.328125 154.332031 51.550781 155.65625 C 51.796875 156.972656 51.996094 158.300781 52.210938 159.632812 C 52.136719 156.921875 51.84375 154.230469 51.464844 151.558594 C 51.09375 148.882812 50.558594 146.238281 49.945312 143.625 Z M 70.503906 142.914062 C 68.695312 142.933594 66.855469 143.261719 65.128906 144.011719 C 63.261719 144.824219 61.492188 145.953125 59.875 147.304688 C 56.683594 150.074219 53.9375 153.546875 52.046875 157.589844 C 53.351562 155.871094 54.730469 154.273438 56.128906 152.71875 C 57.542969 151.1875 59.042969 149.785156 60.558594 148.417969 C 65.691406 143.785156 80.4375 155.773438 83.664062 150.539062 C 84.886719 148.554688 79.660156 142.078125 70.503906 142.914062 Z M 25.394531 142.320312 C 26.765625 148.574219 44.234375 143.726562 47.5625 150.238281 C 48.542969 152.160156 49.503906 154.105469 50.34375 156.136719 C 51.160156 158.183594 51.945312 160.261719 52.617188 162.417969 C 52.121094 157.847656 50.648438 153.4375 48.546875 149.496094 C 47.460938 147.542969 46.167969 145.738281 44.683594 144.179688 C 43.308594 142.742188 41.703125 141.648438 40.023438 140.859375 C 31.765625 136.160156 24.878906 139.953125 25.394531 142.320312 Z M 25.394531 142.320312 " fill-opacity="1" fill-rule="nonzero"/><path fill="#c0bed3" d="M 58.433594 178.625 L 47.867188 178.625 L 44.039062 151.378906 L 62.257812 151.378906 Z M 58.433594 178.625 " fill-opacity="1" fill-rule="nonzero"/><path fill="#b8b6cc" d="M 32.640625 181.300781 L 88.949219 181.300781 L 88.949219 332.972656 L 32.640625 332.972656 Z M 32.640625 181.300781 " fill-opacity="1" fill-rule="nonzero"/><path fill="#abaabd" d="M 75.828125 181.300781 L 88.953125 181.300781 L 88.953125 332.972656 L 75.828125 332.972656 Z M 75.828125 181.300781 " fill-opacity="1" fill-rule="nonzero"/><path fill="#c0bed3" d="M 19.515625 178.253906 L 32.640625 178.253906 L 32.640625 355.804688 L 19.515625 355.804688 Z M 19.515625 178.253906 " fill-opacity="1" fill-rule="nonzero"/><path fill="#c0bed3" d="M 75.828125 178.253906 L 88.953125 178.253906 L 88.953125 355.804688 L 75.828125 355.804688 Z M 75.828125 178.253906 " fill-opacity="1" fill-rule="nonzero"/><path fill="#c0bed3" d="M 75.828125 181.300781 L 88.953125 181.300781 L 88.953125 332.972656 L 75.828125 332.972656 Z M 75.828125 181.300781 " fill-opacity="1" fill-rule="nonzero"/><path fill="#e2e0f4" d="M 91.078125 335.460938 L 30.515625 335.460938 L 30.515625 178.253906 L 91.078125 178.253906 Z M 34.765625 330.484375 L 86.824219 330.484375 L 86.824219 183.789062 L 34.765625 183.789062 Z M 34.765625 330.484375 " fill-opacity="1" fill-rule="nonzero"/><path fill="#e2e0f4" d="M 30.515625 295.871094 L 34.765625 295.871094 L 34.765625 355.804688 L 30.515625 355.804688 Z M 30.515625 295.871094 " fill-opacity="1" fill-rule="nonzero"/><path fill="#e2e0f4" d="M 86.824219 295.871094 L 91.078125 295.871094 L 91.078125 355.804688 L 86.824219 355.804688 Z M 86.824219 295.871094 " fill-opacity="1" fill-rule="nonzero"/><path fill="#b0afc2" d="M 65.046875 270.246094 L 78.722656 270.246094 L 78.722656 298.746094 L 65.046875 298.746094 Z M 65.046875 270.246094 " fill-opacity="1" fill-rule="nonzero"/><path fill="#e2e0f4" d="M 81.027344 298.746094 L 78.722656 298.746094 L 78.722656 270.246094 L 81.027344 270.246094 Z M 81.027344 298.746094 " fill-opacity="1" fill-rule="nonzero"/><path fill="#c0bed3" d="M 63.890625 274.949219 L 75.3125 274.949219 L 75.3125 298.746094 L 63.890625 298.746094 Z M 63.890625 274.949219 " fill-opacity="1" fill-rule="nonzero"/><path fill="#e5e3f4" d="M 77.238281 298.746094 L 75.3125 298.746094 L 75.3125 274.949219 L 77.238281 274.949219 Z M 77.238281 298.746094 " fill-opacity="1" fill-rule="nonzero"/><path fill="#c0bed3" d="M 57.628906 270.246094 L 71.308594 270.246094 L 71.308594 298.746094 L 57.628906 298.746094 Z M 57.628906 270.246094 " fill-opacity="1" fill-rule="nonzero"/><path fill="#e2e0f4" d="M 73.613281 298.746094 L 71.308594 298.746094 L 71.308594 270.246094 L 73.613281 270.246094 Z M 73.613281 298.746094 " fill-opacity="1" fill-rule="nonzero"/><path fill="#c0bed3" d="M 52.613281 273.054688 L 64.941406 273.054688 L 64.941406 298.746094 L 52.613281 298.746094 Z M 52.613281 273.054688 " fill-opacity="1" fill-rule="nonzero"/><path fill="#e2e0f4" d="M 67.023438 298.746094 L 64.941406 298.746094 L 64.941406 273.054688 L 67.023438 273.054688 Z M 67.023438 298.746094 " fill-opacity="1" fill-rule="nonzero"/><path fill="#c0bed3" d="M 51.574219 277.292969 L 61.871094 277.292969 L 61.871094 298.746094 L 51.574219 298.746094 Z M 51.574219 277.292969 " fill-opacity="1" fill-rule="nonzero"/><path fill="#e5e3f4" d="M 63.605469 298.746094 L 61.867188 298.746094 L 61.867188 277.292969 L 63.605469 277.292969 Z M 63.605469 298.746094 " fill-opacity="1" fill-rule="nonzero"/><path fill="#b0afc2" d="M 45.929688 273.054688 L 58.257812 273.054688 L 58.257812 298.746094 L 45.929688 298.746094 Z M 45.929688 273.054688 " fill-opacity="1" fill-rule="nonzero"/><path fill="#e2e0f4" d="M 60.339844 298.746094 L 58.257812 298.746094 L 58.257812 273.054688 L 60.339844 273.054688 Z M 60.339844 298.746094 " fill-opacity="1" fill-rule="nonzero"/><path fill="#ffffff" d="M 49.523438 242.769531 C 49.523438 242.769531 60.640625 237.554688 58.773438 234.34375 C 56.902344 231.128906 49.523438 242.769531 49.523438 242.769531 Z M 49.523438 242.769531 " fill-opacity="1" fill-rule="nonzero"/><path fill="#ffffff" d="M 49.832031 243.171875 C 49.832031 243.171875 60.488281 230.40625 57.261719 227.480469 C 54.035156 224.550781 49.832031 243.171875 49.832031 243.171875 Z M 49.832031 243.171875 " fill-opacity="1" fill-rule="nonzero"/><path fill="#ffffff" d="M 48.890625 243.171875 C 48.890625 243.171875 54.640625 226.363281 51.492188 225.246094 C 48.34375 224.128906 45.277344 236.929688 48.890625 243.171875 Z M 48.890625 243.171875 " fill-opacity="1" fill-rule="nonzero"/><path fill="#ffffff" d="M 49.183594 243.289062 C 49.183594 243.289062 45.800781 225.730469 41.203125 227.535156 C 36.605469 229.335938 49.183594 243.289062 49.183594 243.289062 Z M 49.183594 243.289062 " fill-opacity="1" fill-rule="nonzero"/><path fill="#b8b6cc" d="M 51.492188 225.246094 C 51.078125 226.605469 50.714844 227.976562 50.367188 229.351562 C 50.027344 230.730469 49.703125 232.109375 49.460938 233.507812 C 49.203125 234.898438 48.984375 236.304688 48.875 237.714844 C 48.769531 239.125 48.726562 240.546875 48.90625 241.960938 C 48.648438 240.558594 48.632812 239.125 48.714844 237.703125 C 48.785156 236.28125 49.007812 234.871094 49.253906 233.46875 C 49.785156 230.671875 50.523438 227.917969 51.492188 225.246094 Z M 51.492188 225.246094 " fill-opacity="1" fill-rule="nonzero"/><path fill="#b8b6cc" d="M 41.855469 228.441406 C 43.078125 230.761719 44.226562 233.117188 45.382812 235.46875 C 46.515625 237.832031 47.65625 240.195312 48.722656 242.589844 C 47.496094 240.269531 46.347656 237.914062 45.191406 235.5625 C 44.058594 233.199219 42.921875 230.835938 41.855469 228.441406 Z M 41.855469 228.441406 " fill-opacity="1" fill-rule="nonzero"/><path fill="#b8b6cc" d="M 50.105469 242.484375 C 51.15625 240.179688 52.273438 237.910156 53.390625 235.636719 C 54.527344 233.375 55.65625 231.113281 56.863281 228.886719 C 55.816406 231.191406 54.695312 233.460938 53.578125 235.730469 C 52.441406 237.992188 51.3125 240.257812 50.105469 242.484375 Z M 50.105469 242.484375 " fill-opacity="1" fill-rule="nonzero"/><path fill="#b8b6cc" d="M 57.398438 235.683594 L 55.339844 237.65625 C 54.65625 238.316406 53.960938 238.964844 53.289062 239.636719 C 52.609375 240.296875 51.9375 240.96875 51.285156 241.65625 C 50.960938 242 50.632812 242.347656 50.335938 242.714844 C 50.023438 243.070312 49.734375 243.449219 49.523438 243.875 C 49.898438 242.992188 50.550781 242.265625 51.164062 241.546875 C 51.796875 240.828125 52.46875 240.15625 53.140625 239.484375 C 54.511719 238.164062 55.914062 236.878906 57.398438 235.683594 Z M 57.398438 235.683594 " fill-opacity="1" fill-rule="nonzero"/><path fill="#ffcf42" d="M 53.804688 243.90625 L 53.804688 241.960938 L 45.480469 241.960938 L 45.480469 243.90625 C 45.480469 245.5 44.859375 247.023438 43.820312 248.308594 C 42.90625 249.4375 42.378906 250.839844 42.425781 252.355469 C 42.527344 255.742188 45.566406 258.558594 49.292969 258.714844 C 53.4375 258.894531 56.863281 255.898438 56.863281 252.171875 C 56.863281 250.714844 56.335938 249.371094 55.449219 248.285156 C 54.40625 247.011719 53.804688 245.492188 53.804688 243.90625 Z M 53.804688 243.90625 " fill-opacity="1" fill-rule="nonzero"/><path fill="#b8b6cc" d="M 56.863281 252.171875 C 54.460938 252.261719 52.0625 252.265625 49.664062 252.28125 C 47.265625 252.269531 44.867188 252.261719 42.464844 252.171875 C 44.867188 252.085938 47.265625 252.078125 49.664062 252.066406 C 52.0625 252.078125 54.460938 252.085938 56.863281 252.171875 Z M 56.863281 252.171875 " fill-opacity="1" fill-rule="nonzero"/><path fill="#b8b6cc" d="M 56.3125 249.675781 C 54.089844 249.765625 51.863281 249.769531 49.640625 249.78125 C 47.417969 249.769531 45.191406 249.765625 42.96875 249.675781 C 45.191406 249.585938 47.417969 249.582031 49.640625 249.570312 C 51.867188 249.582031 54.089844 249.589844 56.3125 249.675781 Z M 56.3125 249.675781 " fill-opacity="1" fill-rule="nonzero"/><path fill="#e2e0f4" d="M 32.640625 298.503906 L 88.949219 298.503906 L 88.949219 300.992188 L 32.640625 300.992188 Z M 32.640625 298.503906 " fill-opacity="1" fill-rule="nonzero"/><path fill="#e2e0f4" d="M 32.640625 258.527344 L 88.949219 258.527344 L 88.949219 261.015625 L 32.640625 261.015625 Z M 32.640625 258.527344 " fill-opacity="1" fill-rule="nonzero"/><path fill="#c0bed3" d="M 53.984375 219.300781 L 59.488281 204.253906 L 62.210938 219.300781 Z M 53.984375 219.300781 " fill-opacity="1" fill-rule="nonzero"/><path fill="#c0bed3" d="M 73.863281 218.972656 L 59.457031 218.972656 L 56.71875 195.617188 L 71.125 195.617188 Z M 73.863281 218.972656 " fill-opacity="1" fill-rule="nonzero"/><path fill="#e2e0f4" d="M 74.835938 218.972656 L 60.425781 218.972656 L 57.6875 195.617188 L 72.097656 195.617188 Z M 74.835938 218.972656 " fill-opacity="1" fill-rule="nonzero"/><path fill="#ffffff" d="M 72.234375 216.441406 L 62.433594 216.441406 L 60.289062 198.148438 L 70.089844 198.148438 Z M 72.234375 216.441406 " fill-opacity="1" fill-rule="nonzero"/><path fill="#b8b6cc" d="M 61.820312 211.207031 C 61.820312 211.207031 65.300781 209.121094 66.554688 210.390625 C 67.808594 211.660156 71.261719 208.140625 71.261719 208.140625 L 72.234375 216.441406 L 62.433594 216.441406 Z M 61.820312 211.207031 " fill-opacity="1" fill-rule="nonzero"/><path fill="#ffffff" d="M 57.6875 203.902344 C 58.070312 206.402344 58.371094 208.914062 58.679688 211.425781 C 58.960938 213.9375 59.25 216.453125 59.457031 218.976562 C 59.074219 216.472656 58.773438 213.960938 58.46875 211.449219 C 58.183594 208.9375 57.898438 206.425781 57.6875 203.902344 Z M 57.6875 203.902344 " fill-opacity="1" fill-rule="nonzero"/><path fill="#e2e0f4" d="M 32.640625 218.550781 L 88.949219 218.550781 L 88.949219 221.039062 L 32.640625 221.039062 Z M 32.640625 218.550781 " fill-opacity="1" fill-rule="nonzero"/><path stroke-linecap="round" transform="matrix(0.75, 0, 0, 0.75, 0.0000045, 29.017855)" fill-opacity="1" fill="#e2e0f4" fill-rule="nonzero" stroke-linejoin="round" d="M 180.901048 78.450157 C 180.901048 79.47099 180.854173 80.491823 180.755214 81.507448 C 180.651048 82.528282 180.500006 83.538699 180.302089 84.538699 C 180.104172 85.543907 179.854172 86.53349 179.557297 87.512657 C 179.260422 88.491824 178.916672 89.450157 178.526047 90.398074 C 178.135422 91.340782 177.697922 92.262657 177.218756 93.163699 C 176.734381 94.064741 176.208339 94.944949 175.640631 95.793908 C 175.072922 96.642866 174.463547 97.460574 173.817714 98.252241 C 173.166672 99.043908 172.48438 99.799116 171.760422 100.523075 C 171.036464 101.247033 170.281255 101.934533 169.489588 102.580366 C 168.697922 103.231408 167.880213 103.835575 167.031255 104.403283 C 166.177088 104.9762 165.302088 105.497033 164.401046 105.981408 C 163.500005 106.460575 162.57813 106.898075 161.630213 107.2887 C 160.687505 107.679325 159.723963 108.028283 158.744796 108.325158 C 157.770838 108.622034 156.776046 108.866825 155.776046 109.064742 C 154.770837 109.267867 153.760421 109.418909 152.744796 109.517867 C 151.729171 109.616825 150.708337 109.668909 149.687504 109.668909 C 148.661462 109.668909 147.640629 109.616825 146.625004 109.517867 C 145.609379 109.418909 144.598962 109.267867 143.593753 109.064742 C 142.593753 108.866825 141.598962 108.622034 140.625003 108.325158 C 139.645837 108.028283 138.682295 107.679325 137.739586 107.2887 C 136.79167 106.898075 135.869795 106.460575 134.968753 105.981408 C 134.067711 105.497033 133.192711 104.9762 132.343753 104.403283 C 131.489586 103.835575 130.671878 103.231408 129.880211 102.580366 C 129.088544 101.934533 128.333336 101.247033 127.609377 100.523075 C 126.885419 99.799116 126.203127 99.043908 125.552086 98.252241 C 124.906252 97.460574 124.296877 96.642866 123.729169 95.793908 C 123.16146 94.944949 122.635419 94.064741 122.151044 93.163699 C 121.671877 92.262657 121.234377 91.340782 120.843752 90.398074 C 120.453127 89.450157 120.109377 88.491824 119.812502 87.512657 C 119.515627 86.53349 119.265627 85.543907 119.06771 84.538699 C 118.869793 83.538699 118.718752 82.528282 118.619793 81.507448 C 118.515627 80.491823 118.468752 79.47099 118.468752 78.450157 C 118.468752 77.424115 118.515627 76.40849 118.619793 75.387656 C 118.718752 74.372031 118.869793 73.361615 119.06771 72.356406 C 119.265627 71.356406 119.515627 70.366823 119.812502 69.387656 C 120.109377 68.408489 120.453127 67.444947 120.843752 66.502239 C 121.234377 65.559531 121.671877 64.632447 122.151044 63.731406 C 122.635419 62.830364 123.16146 61.955364 123.729169 61.106405 C 124.296877 60.257447 124.906252 59.43453 125.552086 58.642864 C 126.203127 57.856405 126.885419 57.095988 127.609377 56.37203 C 128.333336 55.65328 129.088544 54.96578 129.880211 54.314738 C 130.671878 53.668905 131.489586 53.05953 132.343753 52.491821 C 133.192711 51.924113 134.067711 51.398071 134.968753 50.918905 C 135.869795 50.43453 136.79167 49.99703 137.739586 49.606405 C 138.682295 49.21578 139.645837 48.87203 140.625003 48.575155 C 141.598962 48.27828 142.593753 48.02828 143.593753 47.830363 C 144.598962 47.632446 145.609379 47.481404 146.625004 47.382446 C 147.640629 47.283488 148.661462 47.231404 149.687504 47.231404 C 150.708337 47.231404 151.729171 47.283488 152.744796 47.382446 C 153.760421 47.481404 154.770837 47.632446 155.776046 47.830363 C 156.776046 48.02828 157.770838 48.27828 158.744796 48.575155 C 159.723963 48.87203 160.687505 49.21578 161.630213 49.606405 C 162.57813 49.99703 163.500005 50.43453 164.401046 50.918905 C 165.302088 51.398071 166.177088 51.924113 167.031255 52.491821 C 167.880213 53.05953 168.697922 53.668905 169.489588 54.314738 C 170.281255 54.96578 171.036464 55.65328 171.760422 56.37203 C 172.48438 57.095988 173.166672 57.856405 173.817714 58.642864 C 174.463547 59.43453 175.072922 60.257447 175.640631 61.106405 C 176.208339 61.955364 176.734381 62.830364 177.218756 63.731406 C 177.697922 64.632447 178.135422 65.559531 178.526047 66.502239 C 178.916672 67.444947 179.260422 68.408489 179.557297 69.387656 C 179.854172 70.366823 180.104172 71.356406 180.302089 72.356406 C 180.500006 73.361615 180.651048 74.372031 180.755214 75.387656 C 180.854173 76.40849 180.901048 77.424115 180.901048 78.450157 Z M 180.901048 78.450157 " stroke="#ffffff" stroke-width="0.567" stroke-opacity="1" stroke-miterlimit="10"/><path fill="#c0bed3" d="M 112.265625 77.410156 C 119.742188 77.410156 126.949219 77.785156 133.722656 78.484375 C 130.105469 70.21875 121.863281 64.441406 112.265625 64.441406 C 102.667969 64.441406 94.421875 70.21875 90.808594 78.484375 C 97.582031 77.785156 104.789062 77.410156 112.265625 77.410156 Z M 112.265625 77.410156 " fill-opacity="1" fill-rule="nonzero"/><g clip-path="url(#ea1c11a30c)"><path stroke-linecap="butt" transform="matrix(0.75, 0, 0, 0.75, 0.0000045, 29.017855)" fill="none" stroke-linejoin="miter" d="M 149.687504 54.674113 L 149.687504 0.00223471 " stroke="#c0bed3" stroke-width="2.835" stroke-opacity="1" stroke-miterlimit="10"/></g><path fill="#006bdc" d="M 343.246094 176.632812 L 147.433594 176.632812 C 143.015625 176.632812 139.433594 180.214844 139.433594 184.636719 L 139.433594 340.238281 L 351.25 340.238281 L 351.25 184.636719 C 351.25 180.214844 347.667969 176.632812 343.246094 176.632812 Z M 343.246094 176.632812 " fill-opacity="1" fill-rule="nonzero"/><path fill="#005cbf" d="M 340.996094 176.632812 L 145.183594 176.632812 C 140.765625 176.632812 137.183594 180.214844 137.183594 184.636719 L 137.183594 340.238281 L 349 340.238281 L 349 184.636719 C 349 180.214844 345.417969 176.632812 340.996094 176.632812 Z M 340.996094 176.632812 " fill-opacity="1" fill-rule="nonzero"/><path fill="#ffffff" d="M 344.75 188.925781 L 344.75 328.929688 L 141.433594 328.929688 L 141.433594 188.925781 Z M 344.75 188.925781 " fill-opacity="1" fill-rule="nonzero"/><g mask="url(#428400ace5)"><g transform="matrix(1, 0, 0, 1, 148, 196)"><g clip-path="url(#8c272dc78c)"><g clip-path="url(#d57817710a)"><path fill="#d3d1e8" d="M 0.816406 1.167969 L 15.3125 1.167969 L 15.3125 19.417969 L 0.816406 19.417969 Z M 0.816406 1.167969 " fill-opacity="1" fill-rule="nonzero"/></g><g clip-path="url(#c57c6ffb35)"><path fill="#d3d1e8" d="M 0.816406 21.667969 L 15.3125 21.667969 L 15.3125 22.917969 L 0.816406 22.917969 Z M 0.816406 21.667969 " fill-opacity="1" fill-rule="nonzero"/></g><path fill="#d3d1e8" d="M 26.167969 1.167969 L 40.664062 1.167969 L 40.664062 19.417969 L 26.167969 19.417969 Z M 26.167969 1.167969 " fill-opacity="1" fill-rule="nonzero"/><path fill="#d3d1e8" d="M 26.167969 21.667969 L 40.664062 21.667969 L 40.664062 22.917969 L 26.167969 22.917969 Z M 26.167969 21.667969 " fill-opacity="1" fill-rule="nonzero"/><path fill="#d3d1e8" d="M 51.523438 1.167969 L 66.015625 1.167969 L 66.015625 19.417969 L 51.523438 19.417969 Z M 51.523438 1.167969 " fill-opacity="1" fill-rule="nonzero"/><path fill="#d3d1e8" d="M 51.523438 21.667969 L 66.015625 21.667969 L 66.015625 22.917969 L 51.523438 22.917969 Z M 51.523438 21.667969 " fill-opacity="1" fill-rule="nonzero"/><path fill="#d3d1e8" d="M 76.875 1.167969 L 91.371094 1.167969 L 91.371094 19.417969 L 76.875 19.417969 Z M 76.875 1.167969 " fill-opacity="1" fill-rule="nonzero"/><path fill="#d3d1e8" d="M 76.875 21.667969 L 91.371094 21.667969 L 91.371094 22.917969 L 76.875 22.917969 Z M 76.875 21.667969 " fill-opacity="1" fill-rule="nonzero"/><g clip-path="url(#ddb24c9028)"><path fill="#d3d1e8" d="M 0.816406 31.824219 L 15.3125 31.824219 L 15.3125 50.074219 L 0.816406 50.074219 Z M 0.816406 31.824219 " fill-opacity="1" fill-rule="nonzero"/></g><g clip-path="url(#68c536db5b)"><path fill="#d3d1e8" d="M 0.816406 52.324219 L 15.3125 52.324219 L 15.3125 53.578125 L 0.816406 53.578125 Z M 0.816406 52.324219 " fill-opacity="1" fill-rule="nonzero"/></g><path fill="#d3d1e8" d="M 26.167969 31.824219 L 40.664062 31.824219 L 40.664062 50.074219 L 26.167969 50.074219 Z M 26.167969 31.824219 " fill-opacity="1" fill-rule="nonzero"/><path fill="#d3d1e8" d="M 26.167969 52.324219 L 40.664062 52.324219 L 40.664062 53.578125 L 26.167969 53.578125 Z M 26.167969 52.324219 " fill-opacity="1" fill-rule="nonzero"/><path fill="#d3d1e8" d="M 51.523438 31.824219 L 66.015625 31.824219 L 66.015625 50.074219 L 51.523438 50.074219 Z M 51.523438 31.824219 " fill-opacity="1" fill-rule="nonzero"/><path fill="#d3d1e8" d="M 51.523438 52.324219 L 66.015625 52.324219 L 66.015625 53.578125 L 51.523438 53.578125 Z M 51.523438 52.324219 " fill-opacity="1" fill-rule="nonzero"/><path fill="#d3d1e8" d="M 76.875 31.824219 L 91.371094 31.824219 L 91.371094 50.074219 L 76.875 50.074219 Z M 76.875 31.824219 " fill-opacity="1" fill-rule="nonzero"/><path fill="#d3d1e8" d="M 76.875 52.324219 L 91.371094 52.324219 L 91.371094 53.578125 L 76.875 53.578125 Z M 76.875 52.324219 " fill-opacity="1" fill-rule="nonzero"/><g clip-path="url(#3166b76b51)"><path fill="#d3d1e8" d="M 0.816406 62.484375 L 15.3125 62.484375 L 15.3125 80.730469 L 0.816406 80.730469 Z M 0.816406 62.484375 " fill-opacity="1" fill-rule="nonzero"/></g><g clip-path="url(#c48fa02e41)"><path fill="#d3d1e8" d="M 0.816406 82.984375 L 15.3125 82.984375 L 15.3125 84.234375 L 0.816406 84.234375 Z M 0.816406 82.984375 " fill-opacity="1" fill-rule="nonzero"/></g><path fill="#d3d1e8" d="M 26.167969 62.484375 L 40.664062 62.484375 L 40.664062 80.730469 L 26.167969 80.730469 Z M 26.167969 62.484375 " fill-opacity="1" fill-rule="nonzero"/><g clip-path="url(#d280f7e74a)"><path fill="#d3d1e8" d="M 26.167969 82.984375 L 40.664062 82.984375 L 40.664062 84.234375 L 26.167969 84.234375 Z M 26.167969 82.984375 " fill-opacity="1" fill-rule="nonzero"/></g><path fill="#d3d1e8" d="M 51.523438 62.484375 L 66.015625 62.484375 L 66.015625 80.730469 L 51.523438 80.730469 Z M 51.523438 62.484375 " fill-opacity="1" fill-rule="nonzero"/><g clip-path="url(#219fdb855b)"><path fill="#d3d1e8" d="M 51.523438 82.984375 L 66.015625 82.984375 L 66.015625 84.234375 L 51.523438 84.234375 Z M 51.523438 82.984375 " fill-opacity="1" fill-rule="nonzero"/></g><path fill="#d3d1e8" d="M 76.875 62.484375 L 91.371094 62.484375 L 91.371094 80.730469 L 76.875 80.730469 Z M 76.875 62.484375 " fill-opacity="1" fill-rule="nonzero"/><g clip-path="url(#d22eca1ad9)"><path fill="#d3d1e8" d="M 76.875 82.984375 L 91.371094 82.984375 L 91.371094 84.234375 L 76.875 84.234375 Z M 76.875 82.984375 " fill-opacity="1" fill-rule="nonzero"/></g></g></g></g><path fill="#d3d1e8" d="M 344.75 321.519531 L 344.75 328.929688 L 141.433594 328.929688 L 141.433594 321.519531 Z M 344.75 321.519531 " fill-opacity="1" fill-rule="nonzero"/><path fill="#c0bed3" d="M 344.75 321.519531 L 344.75 328.929688 L 326.140625 328.929688 L 326.140625 321.519531 Z M 344.75 321.519531 " fill-opacity="1" fill-rule="nonzero"/><path fill="#005cbf" d="M 351.25 356.183594 L 31.785156 356.183594 C 26.242188 356.183594 21.75 351.691406 21.75 346.148438 L 21.75 339.953125 L 351.25 339.953125 Z M 351.25 356.183594 " fill-opacity="1" fill-rule="nonzero"/><path fill="#006bdc" d="M 351.25 356.183594 L 244.28125 356.183594 C 238.738281 356.183594 234.246094 351.691406 234.246094 346.148438 L 234.246094 339.953125 L 351.25 339.953125 Z M 351.25 356.183594 " fill-opacity="1" fill-rule="nonzero"/><path stroke-linecap="round" transform="matrix(0.75, 0, 0, 0.75, 0.0000045, 29.017855)" fill="none" stroke-linejoin="round" d="M 29.906246 419.085596 L 468.333358 419.085596 " stroke="#002e5c" stroke-width="0.425" stroke-opacity="1" stroke-miterlimit="10"/><path stroke-linecap="round" transform="matrix(0.75, 0, 0, 0.75, 0.0000045, 29.017855)" fill="none" stroke-linejoin="round" d="M 398.520854 429.283513 L 381.140644 429.283513 C 379.781269 429.283513 378.666686 428.168929 378.666686 426.809554 L 378.666686 426.507471 C 378.666686 425.148096 379.781269 424.033513 381.140644 424.033513 L 398.520854 424.033513 C 399.885437 424.033513 400.994812 425.148096 400.994812 426.507471 L 400.994812 426.809554 C 400.994812 428.168929 399.885437 429.283513 398.520854 429.283513 Z M 398.520854 429.283513 " stroke="#002e5c" stroke-width="0.425" stroke-opacity="1" stroke-miterlimit="10"/><path stroke-linecap="round" transform="matrix(0.75, 0, 0, 0.75, 0.0000045, 29.017855)" fill="none" stroke-linejoin="round" d="M 426.614605 429.283513 L 409.234396 429.283513 C 407.875021 429.283513 406.760437 428.168929 406.760437 426.809554 L 406.760437 426.507471 C 406.760437 425.148096 407.875021 424.033513 409.234396 424.033513 L 426.614605 424.033513 C 427.97398 424.033513 429.088564 425.148096 429.088564 426.507471 L 429.088564 426.809554 C 429.088564 428.168929 427.97398 429.283513 426.614605 429.283513 Z M 426.614605 429.283513 " stroke="#002e5c" stroke-width="0.425" stroke-opacity="1" stroke-miterlimit="10"/><path stroke-linecap="round" transform="matrix(0.75, 0, 0, 0.75, 0.0000045, 29.017855)" fill="none" stroke-linejoin="round" d="M 454.708357 429.283513 L 437.328148 429.283513 C 435.963564 429.283513 434.854189 428.168929 434.854189 426.809554 L 434.854189 426.507471 C 434.854189 425.148096 435.963564 424.033513 437.328148 424.033513 L 454.708357 424.033513 C 456.067732 424.033513 457.182316 425.148096 457.182316 426.507471 L 457.182316 426.809554 C 457.182316 428.168929 456.067732 429.283513 454.708357 429.283513 Z M 454.708357 429.283513 " stroke="#002e5c" stroke-width="0.425" stroke-opacity="1" stroke-miterlimit="10"/><path fill="#006bdc" d="M 225.554688 349.011719 L 151.34375 349.011719 C 152.625 353.183594 156.136719 356.183594 160.277344 356.183594 L 234.484375 356.183594 C 230.34375 356.183594 226.835938 353.183594 225.554688 349.011719 Z M 225.554688 349.011719 " fill-opacity="1" fill-rule="nonzero"/><path fill="#006bdc" d="M 101.328125 349.011719 L 27.121094 349.011719 C 28.398438 353.183594 31.910156 356.183594 36.050781 356.183594 L 110.261719 356.183594 C 106.117188 356.183594 102.609375 353.183594 101.328125 349.011719 Z M 101.328125 349.011719 " fill-opacity="1" fill-rule="nonzero"/><path stroke-linecap="round" transform="matrix(0.75, 0, 0, 0.75, 0.0000045, 29.017855)" fill="none" stroke-linejoin="round" d="M 153.500004 419.085596 L 156.250004 426.658513 L 187.385423 426.658513 L 190.635423 419.085596 " stroke="#002e5c" stroke-width="0.425" stroke-opacity="1" stroke-miterlimit="10"/><path stroke-linecap="round" transform="matrix(0.75, 0, 0, 0.75, 0.0000045, 29.017855)" fill="none" stroke-linejoin="round" d="M 182.911464 414.960595 L 468.333358 414.960595 " stroke="#002e5c" stroke-width="0.425" stroke-opacity="1" stroke-miterlimit="10"/><path stroke-linecap="round" transform="matrix(0.75, 0, 0, 0.75, 0.0000045, 29.017855)" fill="none" stroke-linejoin="round" d="M 327.010432 203.705373 C 327.010432 205.502248 325.718765 206.955373 324.119807 206.955373 C 322.526057 206.955373 321.23439 205.502248 321.23439 203.705373 C 321.23439 201.908498 322.526057 200.455373 324.119807 200.455373 C 325.718765 200.455373 327.010432 201.908498 327.010432 203.705373 Z M 327.010432 203.705373 " stroke="#002e5c" stroke-width="0.425" stroke-opacity="1" stroke-miterlimit="10"/><path fill="#e1b89f" d="M 95.285156 241.148438 C 99.441406 240.246094 105.921875 245.222656 105.035156 246.597656 C 104.464844 247.488281 102.023438 244.667969 101.058594 245.433594 " fill-opacity="1" fill-rule="nonzero"/><path fill="#e1b89f" d="M 102.292969 245.605469 C 104.953125 248.46875 107.015625 251.15625 106.664062 251.648438 C 106.3125 252.140625 103.96875 250.359375 103.96875 250.359375 C 103.96875 250.359375 105.09375 251.628906 104.660156 252.273438 C 104.230469 252.914062 102.953125 251.898438 102.953125 251.898438 C 102.953125 251.898438 103.890625 253.09375 103.257812 253.601562 C 102.625 254.109375 101.4375 253.28125 101.4375 253.28125 C 101.4375 253.28125 101.664062 254.023438 101.21875 254.394531 C 100.769531 254.765625 98.59375 253.019531 97.003906 251.867188 C 91.75 248.0625 90.140625 241.699219 95.855469 241.0625 " fill-opacity="1" fill-rule="nonzero"/><path fill="#002e5c" d="M 102.992188 245.9375 C 102.621094 245.792969 102.296875 245.585938 101.96875 245.378906 C 101.652344 245.152344 101.332031 244.933594 101.0625 244.644531 C 101.429688 244.785156 101.757812 244.996094 102.085938 245.203125 C 102.398438 245.429688 102.71875 245.648438 102.992188 245.9375 Z M 102.992188 245.9375 " fill-opacity="1" fill-rule="nonzero"/><path fill="#e1b89f" d="M 96.050781 241.054688 L 87.40625 231.992188 L 93.996094 222.460938 C 89.191406 221.304688 86.574219 219.539062 84.703125 215.535156 C 84.6875 215.5625 84.671875 215.585938 84.65625 215.609375 C 83.871094 216.867188 80.996094 221.640625 77.515625 227.046875 C 69.121094 240.085938 96.140625 248.847656 96.140625 248.847656 Z M 96.050781 241.054688 " fill-opacity="1" fill-rule="nonzero"/><path fill="#002e5c" d="M 87 218.144531 C 87 218.144531 91.414062 223.832031 93.050781 223.832031 C 94.34375 222.03125 94.34375 222.03125 94.34375 222.03125 Z M 87 218.144531 " fill-opacity="1" fill-rule="nonzero"/><path fill="#f9c302" d="M 94 222.460938 L 104.800781 209 C 107.9375 204.910156 101.25 200.980469 99.363281 196.613281 C 98.960938 195.675781 94.5 199.960938 84.703125 215.535156 C 86.578125 219.539062 89.191406 221.304688 94 222.460938 Z M 94 222.460938 " fill-opacity="1" fill-rule="nonzero"/><path fill="#002e5c" d="M 102.445312 248.882812 C 102.875 249.199219 103.257812 249.5625 103.660156 249.90625 L 104.242188 250.4375 C 104.4375 250.613281 104.628906 250.796875 104.835938 250.964844 C 104.332031 250.761719 103.917969 250.40625 103.515625 250.0625 C 103.128906 249.695312 102.75 249.320312 102.445312 248.882812 Z M 102.445312 248.882812 " fill-opacity="1" fill-rule="nonzero"/><path fill="#002e5c" d="M 101.46875 250.53125 C 102.175781 251.136719 102.894531 251.671875 103.585938 252.300781 C 103.375 252.207031 103.164062 252.101562 102.96875 251.976562 C 102.769531 251.851562 102.585938 251.710938 102.398438 251.570312 C 102.046875 251.265625 101.699219 250.945312 101.46875 250.53125 Z M 101.46875 250.53125 " fill-opacity="1" fill-rule="nonzero"/><path fill="#002e5c" d="M 100.382812 252.289062 C 101.035156 252.691406 101.585938 253.160156 102.164062 253.648438 C 101.789062 253.546875 101.472656 253.324219 101.167969 253.105469 C 100.878906 252.859375 100.597656 252.609375 100.382812 252.289062 Z M 100.382812 252.289062 " fill-opacity="1" fill-rule="nonzero"/><path fill="#002e5c" d="M 95.277344 220.460938 C 94.285156 220.640625 93.253906 220.515625 92.292969 220.210938 C 91.328125 219.910156 90.441406 219.390625 89.640625 218.773438 C 88.84375 218.148438 88.183594 217.375 87.578125 216.570312 C 87.289062 216.160156 87.03125 215.726562 86.761719 215.304688 L 86.089844 213.957031 L 86.851562 215.25 C 87.140625 215.660156 87.40625 216.078125 87.707031 216.472656 C 88.332031 217.246094 88.980469 218.007812 89.773438 218.605469 C 90.546875 219.222656 91.410156 219.726562 92.34375 220.058594 C 93.277344 220.378906 94.277344 220.5625 95.277344 220.460938 Z M 95.277344 220.460938 " fill-opacity="1" fill-rule="nonzero"/><path fill="#e1b89f" d="M 148.421875 216.582031 C 148.421875 212.328125 154.65625 207.050781 155.8125 208.203125 C 156.5625 208.953125 153.289062 210.738281 153.832031 211.847656 " fill-opacity="1" fill-rule="nonzero"/><path fill="#f9c302" d="M 80.351562 348.46875 L 79.621094 354.3125 L 101.480469 354.3125 C 101.480469 354.3125 99.960938 351.800781 93.941406 350.6875 C 93.707031 348.644531 93.707031 348.644531 93.707031 348.644531 Z M 80.351562 348.46875 " fill-opacity="1" fill-rule="nonzero"/><path fill="#d3d1e8" d="M 79.503906 354.3125 L 101.480469 354.3125 L 101.480469 356.183594 L 79.503906 356.183594 Z M 79.503906 354.3125 " fill-opacity="1" fill-rule="nonzero"/><path fill="#ffffff" d="M 79.945312 351.546875 C 81.386719 351.546875 82.824219 351.699219 84.242188 351.96875 C 84.945312 352.125 85.652344 352.300781 86.320312 352.589844 C 86.65625 352.734375 86.980469 352.90625 87.265625 353.140625 C 87.542969 353.371094 87.769531 353.710938 87.761719 354.078125 C 87.734375 353.710938 87.488281 353.417969 87.203125 353.222656 C 86.914062 353.015625 86.59375 352.863281 86.261719 352.738281 C 85.59375 352.488281 84.902344 352.3125 84.199219 352.175781 C 83.5 352.027344 82.792969 351.917969 82.082031 351.816406 C 81.371094 351.71875 80.660156 351.625 79.945312 351.546875 Z M 79.945312 351.546875 " fill-opacity="1" fill-rule="nonzero"/><path fill="#ffffff" d="M 99.40625 352.554688 C 99.726562 352.710938 99.964844 352.976562 100.167969 353.261719 C 100.257812 353.414062 100.339844 353.570312 100.394531 353.738281 C 100.449219 353.902344 100.46875 354.082031 100.464844 354.257812 C 100.316406 353.941406 100.179688 353.648438 99.988281 353.378906 C 99.90625 353.234375 99.804688 353.101562 99.710938 352.96875 Z M 99.40625 352.554688 " fill-opacity="1" fill-rule="nonzero"/><path fill="#f9c302" d="M 116.820312 348.308594 L 116.089844 354.152344 L 137.949219 354.152344 C 137.949219 354.152344 136.429688 351.640625 130.410156 350.53125 C 130.175781 348.484375 130.175781 348.484375 130.175781 348.484375 Z M 116.820312 348.308594 " fill-opacity="1" fill-rule="nonzero"/><path fill="#d3d1e8" d="M 115.972656 354.152344 L 137.949219 354.152344 L 137.949219 356.023438 L 115.972656 356.023438 Z M 115.972656 354.152344 " fill-opacity="1" fill-rule="nonzero"/><path fill="#ffffff" d="M 116.414062 351.390625 C 117.855469 351.386719 119.292969 351.539062 120.710938 351.8125 C 121.414062 351.964844 122.121094 352.140625 122.789062 352.429688 C 123.121094 352.574219 123.449219 352.75 123.734375 352.980469 C 124.011719 353.210938 124.238281 353.554688 124.226562 353.921875 C 124.203125 353.554688 123.957031 353.261719 123.667969 353.0625 C 123.382812 352.859375 123.0625 352.707031 122.726562 352.582031 C 122.0625 352.332031 121.367188 352.15625 120.667969 352.019531 C 119.96875 351.867188 119.261719 351.761719 118.550781 351.660156 C 117.839844 351.5625 117.128906 351.46875 116.414062 351.390625 Z M 116.414062 351.390625 " fill-opacity="1" fill-rule="nonzero"/><path fill="#ffffff" d="M 135.875 352.4375 C 136.191406 352.59375 136.433594 352.859375 136.636719 353.144531 C 136.726562 353.292969 136.808594 353.453125 136.859375 353.621094 C 136.917969 353.785156 136.9375 353.964844 136.933594 354.136719 C 136.78125 353.824219 136.648438 353.53125 136.457031 353.257812 C 136.375 353.117188 136.273438 352.984375 136.175781 352.847656 Z M 135.875 352.4375 " fill-opacity="1" fill-rule="nonzero"/><path fill="#002e5c" d="M 95.878906 238.699219 C 95 242.164062 90.25 247.378906 89.417969 253.792969 C 87.902344 265.449219 88.386719 274.285156 88.480469 276.464844 C 88.902344 286.46875 85.839844 306.65625 78.101562 350.105469 C 84.304688 350.105469 92.007812 350.105469 98.207031 350.105469 L 105.453125 263.078125 L 114.972656 299.417969 L 113.304688 349.351562 L 132.804688 349.011719 L 130.90625 299.402344 C 130.933594 295.988281 125.949219 265.386719 124.292969 257.257812 C 122.953125 250.699219 119.726562 244.503906 118.140625 238.699219 C 108.953125 238.699219 105.066406 238.699219 95.878906 238.699219 Z M 95.878906 238.699219 " fill-opacity="1" fill-rule="nonzero"/><path fill="#006bdc" d="M 79.492188 342.15625 C 82.613281 342.070312 85.730469 342.0625 88.851562 342.050781 C 91.96875 342.0625 95.089844 342.066406 98.207031 342.15625 C 95.089844 342.246094 91.96875 342.25 88.851562 342.261719 C 85.730469 342.25 82.613281 342.242188 79.492188 342.15625 Z M 79.492188 342.15625 " fill-opacity="1" fill-rule="nonzero"/><path fill="#006bdc" d="M 113.539062 341.765625 C 116.75 341.671875 119.960938 341.695312 123.171875 341.660156 C 126.382812 341.695312 129.59375 341.671875 132.804688 341.765625 C 129.59375 341.855469 126.382812 341.832031 123.171875 341.871094 C 119.960938 341.832031 116.75 341.855469 113.539062 341.765625 Z M 113.539062 341.765625 " fill-opacity="1" fill-rule="nonzero"/><path fill="#006bdc" d="M 91.992188 262.609375 C 95.625 262.621094 99.253906 262.746094 102.890625 262.808594 C 106.519531 262.949219 110.152344 263.027344 113.78125 263.21875 C 110.148438 263.210938 106.515625 263.085938 102.882812 263.019531 C 99.253906 262.882812 95.621094 262.800781 91.992188 262.609375 Z M 91.992188 262.609375 " fill-opacity="1" fill-rule="nonzero"/><path fill="#006bdc" d="M 117.476562 248.695312 C 119.171875 256.335938 120.777344 264 122.277344 271.683594 C 123.769531 279.371094 125.214844 287.066406 126.3125 294.824219 C 126.585938 296.761719 126.820312 298.707031 126.976562 300.660156 C 127.164062 302.617188 127.109375 304.582031 127.105469 306.535156 L 127.070312 318.28125 L 126.960938 341.765625 L 126.925781 318.28125 L 126.925781 306.535156 C 126.917969 304.578125 126.96875 302.621094 126.777344 300.675781 C 126.613281 298.730469 126.375 296.789062 126.109375 294.851562 C 125.035156 287.097656 123.613281 279.398438 122.144531 271.710938 C 120.648438 264.027344 119.097656 256.351562 117.476562 248.695312 Z M 117.476562 248.695312 " fill-opacity="1" fill-rule="nonzero"/><path fill="#006bdc" d="M 101.480469 262.949219 C 100.257812 276.160156 98.917969 289.359375 97.640625 302.5625 C 96.289062 315.761719 95 328.964844 93.59375 342.15625 C 94.816406 328.945312 96.15625 315.746094 97.429688 302.542969 C 98.785156 289.347656 100.074219 276.144531 101.480469 262.949219 Z M 101.480469 262.949219 " fill-opacity="1" fill-rule="nonzero"/><path fill="#e1b89f" d="M 105.894531 184.105469 L 115.675781 184.96875 L 114.113281 202.664062 L 104.335938 201.800781 Z M 105.894531 184.105469 " fill-opacity="1" fill-rule="nonzero"/><path fill="#f9c302" d="M 104.460938 198.246094 C 104.523438 198.246094 104.582031 198.246094 104.640625 198.25 C 109.085938 201.101562 112.265625 199.753906 115.214844 199.054688 C 115.539062 199.03125 115.839844 199.050781 116.113281 199.109375 C 119.609375 199.820312 120.753906 206.28125 120.867188 206.960938 C 122.214844 211.734375 124.53125 211.957031 124.554688 215.683594 C 124.578125 219.382812 122.644531 222.101562 122.046875 223.039062 C 119.511719 227.023438 118.074219 235.011719 123.253906 252.6875 C 112.09375 251.351562 100.9375 250.015625 89.78125 248.679688 C 91.632812 243.964844 93.710938 237.226562 94.480469 228.914062 C 95.269531 220.351562 96.050781 213.101562 95.039062 208.050781 C 94.882812 198.632812 104.394531 198.246094 104.460938 198.246094 Z M 104.460938 198.246094 " fill-opacity="1" fill-rule="nonzero"/><path fill="#002e5c" d="M 114.5625 214.464844 L 120.871094 225.46875 C 120.871094 225.46875 121.582031 223.507812 122.394531 222.695312 C 120.40625 219.671875 114.5625 214.464844 114.5625 214.464844 Z M 114.5625 214.464844 " fill-opacity="1" fill-rule="nonzero"/><path fill="#e1b89f" d="M 154.261719 210.675781 C 157.625 208.683594 160.6875 207.234375 161.09375 207.683594 C 161.5 208.132812 159.265625 210.046875 159.265625 210.046875 C 159.265625 210.046875 160.742188 209.214844 161.277344 209.773438 C 161.816406 210.332031 160.550781 211.363281 160.550781 211.363281 C 160.550781 211.363281 161.917969 210.699219 162.28125 211.425781 C 162.640625 212.152344 161.582031 213.140625 161.582031 213.140625 C 161.582031 213.140625 162.355469 213.074219 162.621094 213.589844 C 162.890625 214.105469 160.722656 215.863281 159.261719 217.171875 C 154.429688 221.5 147.867188 221.726562 148.460938 216.003906 " fill-opacity="1" fill-rule="nonzero"/><path fill="#002e5c" d="M 154.734375 210.0625 C 154.515625 210.394531 154.242188 210.667969 153.972656 210.945312 C 153.683594 211.207031 153.402344 211.472656 153.0625 211.675781 C 153.28125 211.34375 153.554688 211.070312 153.824219 210.792969 C 154.113281 210.535156 154.394531 210.269531 154.734375 210.0625 Z M 154.734375 210.0625 " fill-opacity="1" fill-rule="nonzero"/><path fill="#f9c302" d="M 129.886719 213.878906 L 119.015625 200.472656 C 115.683594 196.539062 110.429688 202.242188 105.757812 203.160156 C 104.761719 203.359375 108 208.625 121.148438 221.496094 C 125.460938 220.515625 127.738281 218.332031 129.886719 213.878906 Z M 129.886719 213.878906 " fill-opacity="1" fill-rule="nonzero"/><path fill="#002e5c" d="M 121.148438 221.496094 C 119.410156 219.855469 117.730469 218.152344 116.046875 216.457031 C 114.378906 214.742188 112.707031 213.035156 111.09375 211.269531 C 112.832031 212.910156 114.511719 214.613281 116.199219 216.308594 C 117.863281 218.023438 119.535156 219.730469 121.148438 221.496094 Z M 121.148438 221.496094 " fill-opacity="1" fill-rule="nonzero"/><path fill="#e1b89f" d="M 148.492188 215.8125 L 137.804688 222.339844 L 129.886719 213.878906 C 127.738281 218.335938 125.460938 220.515625 121.148438 221.496094 C 121.171875 221.519531 121.191406 221.539062 121.210938 221.558594 C 122.273438 222.59375 126.328125 226.414062 130.878906 230.960938 C 141.839844 241.925781 156.128906 217.375 156.128906 217.375 Z M 148.492188 215.8125 " fill-opacity="1" fill-rule="nonzero"/><path fill="#002e5c" d="M 157.496094 211.222656 C 157.898438 210.867188 158.332031 210.570312 158.753906 210.253906 L 159.398438 209.796875 C 159.609375 209.640625 159.828125 209.496094 160.039062 209.328125 C 159.730469 209.773438 159.300781 210.105469 158.878906 210.425781 C 158.4375 210.726562 157.992188 211.015625 157.496094 211.222656 Z M 157.496094 211.222656 " fill-opacity="1" fill-rule="nonzero"/><path fill="#002e5c" d="M 158.898438 212.527344 C 159.640625 211.964844 160.316406 211.371094 161.082031 210.828125 C 160.941406 211.019531 160.792969 211.199219 160.632812 211.367188 C 160.46875 211.53125 160.292969 211.683594 160.113281 211.835938 C 159.742188 212.117188 159.351562 212.390625 158.898438 212.527344 Z M 158.898438 212.527344 " fill-opacity="1" fill-rule="nonzero"/><path fill="#002e5c" d="M 160.386719 213.960938 C 160.917969 213.410156 161.496094 212.96875 162.097656 212.503906 C 161.917969 212.847656 161.632812 213.113281 161.351562 213.363281 C 161.050781 213.59375 160.746094 213.816406 160.386719 213.960938 Z M 160.386719 213.960938 " fill-opacity="1" fill-rule="nonzero"/><path fill="#002e5c" d="M 128.199219 212.207031 C 128.167969 213.210938 127.824219 214.195312 127.328125 215.070312 C 126.824219 215.949219 126.128906 216.707031 125.359375 217.355469 C 124.578125 218.003906 123.683594 218.484375 122.769531 218.90625 C 122.308594 219.101562 121.828125 219.261719 121.359375 219.433594 L 119.902344 219.808594 L 121.324219 219.335938 C 121.785156 219.144531 122.253906 218.96875 122.703125 218.757812 C 123.589844 218.308594 124.472656 217.839844 125.222656 217.191406 C 125.992188 216.570312 126.667969 215.828125 127.1875 214.988281 C 127.699219 214.144531 128.089844 213.203125 128.199219 212.207031 Z M 128.199219 212.207031 " fill-opacity="1" fill-rule="nonzero"/><path fill="#002e5c" d="M 90.074219 246.6875 C 95.625 247.292969 101.160156 248.015625 106.703125 248.675781 C 112.238281 249.410156 117.78125 250.085938 123.308594 250.875 C 117.757812 250.269531 112.222656 249.546875 106.679688 248.886719 C 101.144531 248.152344 95.601562 247.476562 90.074219 246.6875 Z M 90.074219 246.6875 " fill-opacity="1" fill-rule="nonzero"/><path fill="#002e5c" d="M 112.859375 195.519531 L 114.945312 193.179688 L 114.589844 197.183594 Z M 112.859375 195.519531 " fill-opacity="1" fill-rule="nonzero"/><path fill="#e1b89f" d="M 119.175781 189.03125 C 119.539062 192.226562 117.246094 195.015625 114.0625 195.382812 L 110.726562 195.765625 C 107.542969 196.128906 104.675781 193.929688 104.3125 190.734375 L 103.019531 179.460938 C 102.652344 176.265625 104.933594 173.367188 108.117188 173.003906 L 111.453125 172.621094 C 114.636719 172.253906 117.515625 174.5625 117.882812 177.757812 Z M 119.175781 189.03125 " fill-opacity="1" fill-rule="nonzero"/><path fill="#002e5c" d="M 103.6875 193.667969 C 108.3125 196.105469 111.382812 191.929688 110.347656 188.578125 C 109.3125 185.230469 111.085938 185.753906 112.511719 184.742188 C 113.9375 183.730469 111.570312 181.308594 113.152344 179.730469 C 114.734375 178.148438 117.53125 176.644531 117.015625 174.53125 C 116.5 172.417969 104.0625 166.042969 99.3125 176.980469 C 94.5625 187.917969 103.6875 193.667969 103.6875 193.667969 Z M 103.6875 193.667969 " fill-opacity="1" fill-rule="nonzero"/><path fill="#e1b89f" d="M 112.617188 186.488281 C 112.773438 187.851562 112.097656 189.046875 111.109375 189.160156 C 110.121094 189.273438 109.191406 188.261719 109.035156 186.898438 C 108.878906 185.539062 109.554688 184.34375 110.542969 184.230469 C 111.53125 184.117188 112.460938 185.128906 112.617188 186.488281 Z M 112.617188 186.488281 " fill-opacity="1" fill-rule="nonzero"/><path fill="#002e5c" d="M 111.378906 188.222656 C 111.054688 187.984375 110.941406 187.535156 110.988281 187.136719 C 111.007812 186.933594 111.078125 186.734375 111.195312 186.558594 C 111.308594 186.382812 111.492188 186.226562 111.71875 186.1875 L 111.636719 186.316406 C 111.554688 185.980469 111.410156 185.65625 111.160156 185.429688 C 110.917969 185.214844 110.503906 185.136719 110.230469 185.402344 C 110.332031 185.25 110.515625 185.152344 110.710938 185.136719 C 110.902344 185.125 111.097656 185.191406 111.257812 185.304688 C 111.578125 185.539062 111.738281 185.910156 111.839844 186.265625 C 111.855469 186.320312 111.824219 186.375 111.769531 186.390625 C 111.765625 186.394531 111.757812 186.394531 111.757812 186.394531 C 111.429688 186.449219 111.21875 186.8125 111.152344 187.164062 C 111.085938 187.515625 111.121094 187.925781 111.378906 188.222656 Z M 111.378906 188.222656 " fill-opacity="1" fill-rule="nonzero"/><path fill="#002e5c" d="M 117.199219 182.398438 C 117.269531 182.996094 117.148438 183.496094 116.933594 183.523438 C 116.71875 183.546875 116.488281 183.082031 116.421875 182.488281 C 116.351562 181.894531 116.472656 181.390625 116.6875 181.363281 C 116.902344 181.339844 117.132812 181.804688 117.199219 182.398438 Z M 117.199219 182.398438 " fill-opacity="1" fill-rule="nonzero"/><path fill="#e1b89f" d="M 118.433594 182.578125 C 118.433594 182.578125 118.628906 185.007812 119.296875 185.539062 C 119.960938 186.066406 119.136719 187.371094 118.210938 186.871094 C 117.289062 186.371094 118.433594 182.578125 118.433594 182.578125 Z M 118.433594 182.578125 " fill-opacity="1" fill-rule="nonzero"/><path fill="#ffffff" d="M 118.398438 189.75 C 117.71875 190.980469 117.1875 189.179688 117.1875 189.179688 Z M 118.398438 189.75 " fill-opacity="1" fill-rule="nonzero"/><path fill="#e19d9f" d="M 114.988281 187.230469 C 115.042969 187.699219 115.667969 188.011719 116.386719 187.929688 C 117.105469 187.847656 117.644531 187.402344 117.589844 186.933594 C 117.535156 186.464844 116.910156 186.152344 116.191406 186.234375 C 115.472656 186.316406 114.933594 186.761719 114.988281 187.230469 Z M 114.988281 187.230469 " fill-opacity="1" fill-rule="nonzero"/><path fill="#005cbf" d="M 103.769531 188.035156 C 105.046875 189.933594 104.902344 192.269531 103.441406 193.25 C 101.984375 194.234375 99.765625 193.492188 98.488281 191.597656 C 97.207031 189.699219 97.355469 187.363281 98.8125 186.382812 C 100.269531 185.398438 102.488281 186.140625 103.769531 188.035156 Z M 103.769531 188.035156 " fill-opacity="1" fill-rule="nonzero"/><path fill="#002e5c" d="M 99.082031 188.222656 C 88.785156 188.222656 81.1875 206.019531 86.625 205.082031 C 80.625 219.332031 88.734375 215.179688 92.007812 210.300781 C 92.007812 222.707031 99.9375 215.828125 99.9375 209.328125 C 104.8125 216.703125 106.585938 210.832031 102.980469 202.707031 C 109.714844 207.117188 102.625 190.179688 102.625 190.179688 C 102.625 190.179688 101.222656 188.222656 99.082031 188.222656 Z M 99.082031 188.222656 " fill-opacity="1" fill-rule="nonzero"/><path fill="#002e5c" d="M 104.640625 171.40625 C 104.011719 171.679688 103.390625 171.964844 102.820312 172.339844 C 102.25 172.707031 101.695312 173.105469 101.195312 173.566406 C 100.679688 174.011719 100.207031 174.5 99.757812 175.011719 C 99.308594 175.527344 98.882812 176.0625 98.5 176.632812 C 99.132812 175.410156 100.03125 174.332031 101.054688 173.40625 C 101.574219 172.953125 102.140625 172.542969 102.738281 172.199219 C 103.332031 171.84375 103.988281 171.605469 104.640625 171.40625 Z M 104.640625 171.40625 " fill-opacity="1" fill-rule="nonzero"/><path fill="#002e5c" d="M 114.945312 172.957031 C 114.382812 172.472656 113.738281 172.097656 113.082031 171.765625 C 112.417969 171.445312 111.738281 171.160156 111.03125 170.949219 C 109.625 170.5 108.160156 170.257812 106.6875 170.082031 C 107.429688 170.09375 108.175781 170.136719 108.910156 170.25 C 109.652344 170.351562 110.375 170.539062 111.09375 170.746094 C 112.503906 171.214844 113.90625 171.875 114.945312 172.957031 Z M 114.945312 172.957031 " fill-opacity="1" fill-rule="nonzero"/><path fill="#002e5c" d="M 95.097656 189.554688 C 94.046875 189.726562 93.089844 190.199219 92.199219 190.746094 C 91.304688 191.296875 90.480469 191.957031 89.710938 192.671875 C 88.921875 193.371094 88.1875 194.128906 87.480469 194.910156 C 86.773438 195.691406 86.085938 196.496094 85.4375 197.332031 C 86.613281 195.570312 88 193.949219 89.566406 192.515625 C 90.359375 191.808594 91.191406 191.136719 92.117188 190.609375 C 93.03125 190.078125 94.035156 189.648438 95.097656 189.554688 Z M 95.097656 189.554688 " fill-opacity="1" fill-rule="nonzero"/><path fill="#002e5c" d="M 103.5625 194.398438 C 104.433594 195.402344 105.078125 196.589844 105.613281 197.804688 C 105.863281 198.421875 106.097656 199.046875 106.269531 199.6875 C 106.457031 200.328125 106.574219 200.984375 106.667969 201.640625 C 106.332031 200.359375 105.945312 199.097656 105.417969 197.886719 C 105.171875 197.273438 104.875 196.6875 104.570312 196.101562 C 104.261719 195.519531 103.9375 194.945312 103.5625 194.398438 Z M 103.5625 194.398438 " fill-opacity="1" fill-rule="nonzero"/><path fill="#002e5c" d="M 87.4375 204.457031 C 87.054688 204.945312 86.710938 205.464844 86.355469 205.972656 C 86.007812 206.484375 85.65625 206.996094 85.328125 207.523438 C 84.992188 208.042969 84.679688 208.574219 84.382812 209.117188 C 84.097656 209.664062 83.820312 210.222656 83.6875 210.832031 C 83.746094 210.207031 83.972656 209.609375 84.238281 209.042969 C 84.503906 208.480469 84.824219 207.941406 85.152344 207.40625 C 85.839844 206.367188 86.5625 205.347656 87.4375 204.457031 Z M 87.4375 204.457031 " fill-opacity="1" fill-rule="nonzero"/><path fill="#002e5c" d="M 95.066406 222.460938 C 95.015625 219.625 95.042969 216.789062 95.066406 213.953125 C 95.113281 211.117188 95.152344 208.28125 95.277344 205.445312 C 95.328125 208.285156 95.300781 211.121094 95.277344 213.957031 C 95.230469 216.789062 95.191406 219.625 95.066406 222.460938 Z M 95.066406 222.460938 " fill-opacity="1" fill-rule="nonzero"/><path fill="#002e5c" d="M 26.699219 355.84375 L 65.003906 355.6875 L 103.3125 355.632812 L 179.921875 355.527344 L 256.535156 355.632812 L 294.84375 355.6875 L 333.148438 355.84375 L 294.84375 356 L 256.535156 356.054688 L 179.921875 356.164062 L 103.3125 356.054688 L 65.003906 356 Z M 26.699219 355.84375 " fill-opacity="1" fill-rule="nonzero"/><path fill="#c0bed3" d="M 317.828125 220.46875 L 295.761719 220.46875 L 295.761719 207.046875 C 295.761719 205.558594 296.964844 204.355469 298.453125 204.355469 L 315.136719 204.355469 C 316.625 204.355469 317.828125 205.558594 317.828125 207.046875 Z M 317.828125 220.46875 " fill-opacity="1" fill-rule="nonzero"/><path fill="#c0bed3" d="M 168.351562 213.140625 L 317.828125 213.140625 L 317.828125 313.5 L 168.351562 313.5 Z M 168.351562 213.140625 " fill-opacity="1" fill-rule="nonzero"/><path fill="#ffffff" d="M 315.808594 215.160156 L 315.808594 311.476562 L 170.375 311.476562 L 170.375 215.160156 Z M 315.808594 215.160156 " fill-opacity="1" fill-rule="nonzero"/><path stroke-linecap="round" transform="matrix(0.75, 0, 0, 0.75, 0.0000045, 29.017855)" fill="none" stroke-linejoin="round" d="M 398.083353 237.580375 L 402.604187 237.580375 L 402.604187 241.569959 L 398.083353 241.569959 Z M 398.083353 237.580375 " stroke="#ffffff" stroke-width="0.567" stroke-opacity="1" stroke-miterlimit="10"/><path stroke-linecap="round" transform="matrix(0.75, 0, 0, 0.75, 0.0000045, 29.017855)" fill="none" stroke-linejoin="round" d="M 414.66148 241.569959 L 419.182313 237.580375 " stroke="#ffffff" stroke-width="0.567" stroke-opacity="1" stroke-miterlimit="10"/><path stroke-linecap="round" transform="matrix(0.75, 0, 0, 0.75, 0.0000045, 29.017855)" fill="none" stroke-linejoin="round" d="M 414.66148 237.580375 L 419.182313 241.569959 " stroke="#ffffff" stroke-width="0.567" stroke-opacity="1" stroke-miterlimit="10"/><path stroke-linecap="round" transform="matrix(0.75, 0, 0, 0.75, 0.0000045, 29.017855)" fill="none" stroke-linejoin="round" d="M 406.380229 241.569959 L 410.901063 241.569959 " stroke="#ffffff" stroke-width="0.567" stroke-opacity="1" stroke-miterlimit="10"/><path fill="#f9a402" d="M 243.089844 243.136719 L 292.089844 198.757812 L 194.09375 198.757812 Z M 243.089844 243.136719 " fill-opacity="1" fill-rule="nonzero"/><path fill="#f9a402" d="M 194.09375 198.757812 L 243.089844 155.660156 L 292.089844 198.757812 " fill-opacity="1" fill-rule="nonzero"/><path fill="#e2e0f4" d="M 204.355469 235.804688 L 281.828125 235.804688 L 281.828125 132.300781 L 218.917969 132.300781 C 213.230469 137.988281 210.042969 141.175781 204.351562 146.867188 L 204.351562 235.804688 Z M 204.355469 235.804688 " fill-opacity="1" fill-rule="nonzero"/><path fill="#c0bed3" d="M 218.917969 132.300781 L 218.917969 147.050781 L 204.355469 147.050781 Z M 218.917969 132.300781 " fill-opacity="1" fill-rule="nonzero"/><path fill="#c0bed3" d="M 214.101562 157.824219 L 272.078125 157.824219 L 272.078125 159.878906 L 214.101562 159.878906 Z M 214.101562 157.824219 " fill-opacity="1" fill-rule="nonzero"/><path fill="#c0bed3" d="M 214.101562 161.480469 L 272.078125 161.480469 L 272.078125 163.53125 L 214.101562 163.53125 Z M 214.101562 161.480469 " fill-opacity="1" fill-rule="nonzero"/><path fill="#c0bed3" d="M 214.101562 165.136719 L 272.078125 165.136719 L 272.078125 167.1875 L 214.101562 167.1875 Z M 214.101562 165.136719 " fill-opacity="1" fill-rule="nonzero"/><path fill="#c0bed3" d="M 214.101562 168.792969 L 272.078125 168.792969 L 272.078125 170.84375 L 214.101562 170.84375 Z M 214.101562 168.792969 " fill-opacity="1" fill-rule="nonzero"/><path fill="#c0bed3" d="M 214.101562 172.449219 L 272.078125 172.449219 L 272.078125 174.5 L 214.101562 174.5 Z M 214.101562 172.449219 " fill-opacity="1" fill-rule="nonzero"/><path fill="#c0bed3" d="M 214.101562 176.105469 L 272.078125 176.105469 L 272.078125 178.15625 L 214.101562 178.15625 Z M 214.101562 176.105469 " fill-opacity="1" fill-rule="nonzero"/><path fill="#c0bed3" d="M 214.101562 179.757812 L 272.078125 179.757812 L 272.078125 181.8125 L 214.101562 181.8125 Z M 214.101562 179.757812 " fill-opacity="1" fill-rule="nonzero"/><path fill="#c0bed3" d="M 214.101562 183.414062 L 272.078125 183.414062 L 272.078125 185.46875 L 214.101562 185.46875 Z M 214.101562 183.414062 " fill-opacity="1" fill-rule="nonzero"/><path fill="#c0bed3" d="M 214.101562 187.070312 L 272.078125 187.070312 L 272.078125 189.125 L 214.101562 189.125 Z M 214.101562 187.070312 " fill-opacity="1" fill-rule="nonzero"/><path fill="#c0bed3" d="M 214.101562 190.726562 L 272.078125 190.726562 L 272.078125 192.777344 L 214.101562 192.777344 Z M 214.101562 190.726562 " fill-opacity="1" fill-rule="nonzero"/><path fill="#c0bed3" d="M 214.101562 194.382812 L 272.078125 194.382812 L 272.078125 196.433594 L 214.101562 196.433594 Z M 214.101562 194.382812 " fill-opacity="1" fill-rule="nonzero"/><path fill="#c0bed3" d="M 214.101562 198.039062 L 272.078125 198.039062 L 272.078125 200.089844 L 214.101562 200.089844 Z M 214.101562 198.039062 " fill-opacity="1" fill-rule="nonzero"/><path fill="#c0bed3" d="M 214.101562 201.695312 L 272.078125 201.695312 L 272.078125 203.746094 L 214.101562 203.746094 Z M 214.101562 201.695312 " fill-opacity="1" fill-rule="nonzero"/><path fill="#c0bed3" d="M 214.101562 205.347656 L 272.078125 205.347656 L 272.078125 207.402344 L 214.101562 207.402344 Z M 214.101562 205.347656 " fill-opacity="1" fill-rule="nonzero"/><path fill="#c0bed3" d="M 214.101562 209.003906 L 272.078125 209.003906 L 272.078125 211.058594 L 214.101562 211.058594 Z M 214.101562 209.003906 " fill-opacity="1" fill-rule="nonzero"/><path fill="#c0bed3" d="M 214.101562 212.660156 L 272.078125 212.660156 L 272.078125 214.710938 L 214.101562 214.710938 Z M 214.101562 212.660156 " fill-opacity="1" fill-rule="nonzero"/><path fill="#c3c5d1" d="M 214.101562 157.824219 L 272.078125 157.824219 L 272.078125 159.878906 L 214.101562 159.878906 Z M 214.101562 157.824219 " fill-opacity="1" fill-rule="nonzero"/><path fill="#c3c5d1" d="M 214.101562 161.480469 L 272.078125 161.480469 L 272.078125 163.53125 L 214.101562 163.53125 Z M 214.101562 161.480469 " fill-opacity="1" fill-rule="nonzero"/><path fill="#c3c5d1" d="M 214.101562 165.136719 L 272.078125 165.136719 L 272.078125 167.1875 L 214.101562 167.1875 Z M 214.101562 165.136719 " fill-opacity="1" fill-rule="nonzero"/><path fill="#c3c5d1" d="M 214.101562 168.792969 L 272.078125 168.792969 L 272.078125 170.84375 L 214.101562 170.84375 Z M 214.101562 168.792969 " fill-opacity="1" fill-rule="nonzero"/><path fill="#c3c5d1" d="M 214.101562 172.449219 L 272.078125 172.449219 L 272.078125 174.5 L 214.101562 174.5 Z M 214.101562 172.449219 " fill-opacity="1" fill-rule="nonzero"/><path fill="#c3c5d1" d="M 214.101562 176.105469 L 272.078125 176.105469 L 272.078125 178.15625 L 214.101562 178.15625 Z M 214.101562 176.105469 " fill-opacity="1" fill-rule="nonzero"/><path fill="#c3c5d1" d="M 214.101562 179.757812 L 272.078125 179.757812 L 272.078125 181.8125 L 214.101562 181.8125 Z M 214.101562 179.757812 " fill-opacity="1" fill-rule="nonzero"/><path fill="#c3c5d1" d="M 214.101562 183.414062 L 272.078125 183.414062 L 272.078125 185.46875 L 214.101562 185.46875 Z M 214.101562 183.414062 " fill-opacity="1" fill-rule="nonzero"/><path fill="#c3c5d1" d="M 214.101562 187.070312 L 272.078125 187.070312 L 272.078125 189.125 L 214.101562 189.125 Z M 214.101562 187.070312 " fill-opacity="1" fill-rule="nonzero"/><path fill="#c3c5d1" d="M 214.101562 190.726562 L 272.078125 190.726562 L 272.078125 192.777344 L 214.101562 192.777344 Z M 214.101562 190.726562 " fill-opacity="1" fill-rule="nonzero"/><path fill="#c3c5d1" d="M 214.101562 194.382812 L 272.078125 194.382812 L 272.078125 196.433594 L 214.101562 196.433594 Z M 214.101562 194.382812 " fill-opacity="1" fill-rule="nonzero"/><path fill="#c3c5d1" d="M 214.101562 198.039062 L 272.078125 198.039062 L 272.078125 200.089844 L 214.101562 200.089844 Z M 214.101562 198.039062 " fill-opacity="1" fill-rule="nonzero"/><path fill="#c3c5d1" d="M 214.101562 201.695312 L 272.078125 201.695312 L 272.078125 203.746094 L 214.101562 203.746094 Z M 214.101562 201.695312 " fill-opacity="1" fill-rule="nonzero"/><path fill="#c3c5d1" d="M 214.101562 205.347656 L 272.078125 205.347656 L 272.078125 207.402344 L 214.101562 207.402344 Z M 214.101562 205.347656 " fill-opacity="1" fill-rule="nonzero"/><path fill="#c3c5d1" d="M 214.101562 209.003906 L 272.078125 209.003906 L 272.078125 211.058594 L 214.101562 211.058594 Z M 214.101562 209.003906 " fill-opacity="1" fill-rule="nonzero"/><path fill="#c3c5d1" d="M 214.101562 212.660156 L 272.078125 212.660156 L 272.078125 214.710938 L 214.101562 214.710938 Z M 214.101562 212.660156 " fill-opacity="1" fill-rule="nonzero"/><path fill="#f9c302" d="M 194.09375 263.917969 L 292.089844 263.917969 L 292.089844 198.757812 L 243.089844 243.136719 L 194.09375 198.757812 Z M 194.09375 263.917969 " fill-opacity="1" fill-rule="nonzero"/><path fill="#fcd14e" d="M 194.09375 263.917969 L 292.089844 263.917969 L 253.066406 230.820312 C 247.3125 225.9375 238.871094 225.9375 233.117188 230.820312 Z M 194.09375 263.917969 " fill-opacity="1" fill-rule="nonzero"/><path fill="#002e5c" d="M 10.5 355.996094 L 54.75 355.84375 L 99 355.785156 L 187.5 355.679688 L 276 355.785156 L 320.25 355.839844 L 364.5 355.996094 L 320.25 356.152344 L 276 356.210938 L 187.5 356.316406 L 99 356.210938 L 54.75 356.152344 Z M 10.5 355.996094 " fill-opacity="1" fill-rule="nonzero"/><path fill="#002e5c" d="M 104.566406 199.105469 C 105.316406 199.585938 106.132812 199.957031 106.96875 200.242188 C 107.804688 200.519531 108.679688 200.699219 109.558594 200.726562 C 110 200.765625 110.4375 200.71875 110.878906 200.691406 C 111.308594 200.605469 111.75 200.550781 112.164062 200.402344 C 113.023438 200.175781 113.800781 199.730469 114.5625 199.269531 C 113.847656 199.792969 113.082031 200.296875 112.214844 200.558594 C 111.367188 200.859375 110.453125 200.980469 109.550781 200.941406 C 107.746094 200.851562 105.984375 200.1875 104.566406 199.105469 Z M 104.566406 199.105469 " fill-opacity="1" fill-rule="nonzero"/><path fill="#002e5c" d="M 135.433594 219.808594 C 136.160156 220.417969 136.832031 221.082031 137.507812 221.742188 C 138.164062 222.421875 138.828125 223.097656 139.433594 223.832031 C 138.703125 223.222656 138.03125 222.554688 137.359375 221.894531 C 136.699219 221.214844 136.039062 220.539062 135.433594 219.808594 Z M 135.433594 219.808594 " fill-opacity="1" fill-rule="nonzero"/><path fill="#e2e0f4" d="M 181.148438 126.066406 L 147.582031 138.730469 L 156.003906 161.046875 L 167.050781 139.515625 L 189.566406 148.386719 Z M 181.148438 126.066406 " fill-opacity="1" fill-rule="nonzero"/><path stroke-linecap="round" transform="matrix(0.75, 0, 0, 0.75, 0.0000045, 29.017855)" fill-opacity="1" fill="#e2e0f4" fill-rule="nonzero" stroke-linejoin="round" d="M 252.755219 159.158495 L 222.734384 147.330369 L 208.005216 176.038705 " stroke="#ffffff" stroke-width="0.567" stroke-opacity="1" stroke-miterlimit="10"/><path stroke-linecap="round" transform="matrix(0.75, 0, 0, 0.75, 0.0000045, 29.017855)" fill-opacity="1" fill="#e2e0f4" fill-rule="nonzero" stroke-linejoin="round" d="M 196.776049 146.283494 L 220.302092 154.67412 C 223.770842 155.908495 227.625009 154.45537 229.411467 151.23662 L 241.53126 129.398077 " stroke="#ffffff" stroke-width="0.567" stroke-opacity="1" stroke-miterlimit="10"/><path fill="#e2e0f4" d="M 332.84375 144.925781 L 298.390625 134.933594 L 291.746094 157.839844 L 313.496094 147.234375 L 326.199219 167.835938 Z M 332.84375 144.925781 " fill-opacity="1" fill-rule="nonzero"/><path stroke-linecap="round" transform="matrix(0.75, 0, 0, 0.75, 0.0000045, 29.017855)" fill-opacity="1" fill="#e2e0f4" fill-rule="nonzero" stroke-linejoin="round" d="M 434.932314 185.090789 L 417.994813 157.622037 L 388.994811 171.762663 " stroke="#ffffff" stroke-width="0.567" stroke-opacity="1" stroke-miterlimit="10"/><path stroke-linecap="round" transform="matrix(0.75, 0, 0, 0.75, 0.0000045, 29.017855)" fill-opacity="1" fill="#e2e0f4" fill-rule="nonzero" stroke-linejoin="round" d="M 397.854187 141.220994 L 411.645854 162.038704 C 413.682313 165.111621 417.635438 166.257454 420.994813 164.752246 L 443.79169 154.543912 " stroke="#ffffff" stroke-width="0.567" stroke-opacity="1" stroke-miterlimit="10"/><path fill="#e2e0f4" d="M 318.429688 115.601562 L 299.953125 103.210938 L 291.710938 115.496094 L 306.5625 113.324219 L 310.1875 127.886719 Z M 318.429688 115.601562 " fill-opacity="1" fill-rule="nonzero"/><path stroke-linecap="round" transform="matrix(0.75, 0, 0, 0.75, 0.0000045, 29.017855)" fill-opacity="1" fill="#e2e0f4" fill-rule="nonzero" stroke-linejoin="round" d="M 413.583354 131.82516 L 408.750021 112.408492 L 388.947936 115.304326 " stroke="#ffffff" stroke-width="0.567" stroke-opacity="1" stroke-miterlimit="10"/><path stroke-linecap="round" transform="matrix(0.75, 0, 0, 0.75, 0.0000045, 29.017855)" fill-opacity="1" fill="#e2e0f4" fill-rule="nonzero" stroke-linejoin="round" d="M 399.93752 98.924116 L 404.166687 113.825159 C 404.786479 116.023076 406.911479 117.444951 409.182313 117.189742 L 424.572939 115.450159 " stroke="#ffffff" stroke-width="0.567" stroke-opacity="1" stroke-miterlimit="10"/><path fill="#e2e0f4" d="M 236.28125 76.289062 L 218.050781 63.535156 L 209.574219 75.65625 L 224.460938 73.777344 L 227.800781 88.410156 Z M 236.28125 76.289062 " fill-opacity="1" fill-rule="nonzero"/><path stroke-linecap="round" transform="matrix(0.75, 0, 0, 0.75, 0.0000045, 29.017855)" fill-opacity="1" fill="#e2e0f4" fill-rule="nonzero" stroke-linejoin="round" d="M 303.734389 79.18974 L 299.281264 59.679322 L 279.432304 62.18453 " stroke="#ffffff" stroke-width="0.567" stroke-opacity="1" stroke-miterlimit="10"/><path stroke-linecap="round" transform="matrix(0.75, 0, 0, 0.75, 0.0000045, 29.017855)" fill-opacity="1" fill="#e2e0f4" fill-rule="nonzero" stroke-linejoin="round" d="M 290.734388 46.023071 L 294.671888 61.002239 C 295.250013 63.210572 297.343764 64.679322 299.619805 64.465781 L 315.041681 63.028281 " stroke="#ffffff" stroke-width="0.567" stroke-opacity="1" stroke-miterlimit="10"/><path fill="#e2e0f4" d="M 270.335938 89.742188 L 248.613281 84.941406 L 245.421875 99.386719 L 258.457031 91.949219 L 267.144531 104.1875 Z M 270.335938 89.742188 " fill-opacity="1" fill-rule="nonzero"/><path stroke-linecap="round" transform="matrix(0.75, 0, 0, 0.75, 0.0000045, 29.017855)" fill-opacity="1" fill="#e2e0f4" fill-rule="nonzero" stroke-linejoin="round" d="M 356.192726 100.2262 L 344.609392 83.90849 L 327.229182 93.825158 " stroke="#ffffff" stroke-width="0.567" stroke-opacity="1" stroke-miterlimit="10"/><path stroke-linecap="round" transform="matrix(0.75, 0, 0, 0.75, 0.0000045, 29.017855)" fill-opacity="1" fill="#e2e0f4" fill-rule="nonzero" stroke-linejoin="round" d="M 331.484391 74.56474 L 340.854183 86.898074 C 342.2396 88.715782 344.734392 89.267866 346.750017 88.200157 L 360.447934 80.965782 " stroke="#ffffff" stroke-width="0.567" stroke-opacity="1" stroke-miterlimit="10"/><path fill="#e2e0f4" d="M 172.5 113.117188 L 157.839844 109.875 L 155.6875 119.621094 L 164.484375 114.605469 L 170.34375 122.863281 Z M 172.5 113.117188 " fill-opacity="1" fill-rule="nonzero"/><path stroke-linecap="round" transform="matrix(0.75, 0, 0, 0.75, 0.0000045, 29.017855)" fill-opacity="1" fill="#e2e0f4" fill-rule="nonzero" stroke-linejoin="round" d="M 227.125009 125.127243 L 219.312508 114.116826 L 207.583341 120.804326 " stroke="#ffffff" stroke-width="0.567" stroke-opacity="1" stroke-miterlimit="10"/><path stroke-linecap="round" transform="matrix(0.75, 0, 0, 0.75, 0.0000045, 29.017855)" fill-opacity="1" fill="#e2e0f4" fill-rule="nonzero" stroke-linejoin="round" d="M 210.453133 107.809533 L 216.781258 116.132451 C 217.71355 117.356409 219.395842 117.731409 220.760425 117.012659 L 230.000009 112.13245 " stroke="#ffffff" stroke-width="0.567" stroke-opacity="1" stroke-miterlimit="10"/><path fill="#e2e0f4" d="M 302.40625 86.417969 L 287.433594 87.523438 L 288.171875 97.480469 L 295.15625 90.144531 L 303.140625 96.371094 Z M 302.40625 86.417969 " fill-opacity="1" fill-rule="nonzero"/><path stroke-linecap="round" transform="matrix(0.75, 0, 0, 0.75, 0.0000045, 29.017855)" fill-opacity="1" fill="#e2e0f4" fill-rule="nonzero" stroke-linejoin="round" d="M 404.187521 89.804324 L 393.541687 81.50224 L 384.229186 91.283491 " stroke="#ffffff" stroke-width="0.567" stroke-opacity="1" stroke-miterlimit="10"/><path stroke-linecap="round" transform="matrix(0.75, 0, 0, 0.75, 0.0000045, 29.017855)" fill-opacity="1" fill="#e2e0f4" fill-rule="nonzero" stroke-linejoin="round" d="M 383.244811 78.007448 L 391.692728 84.163699 C 392.93752 85.069949 394.661478 84.944949 395.755228 83.861615 L 403.208354 76.53349 " stroke="#ffffff" stroke-width="0.567" stroke-opacity="1" stroke-miterlimit="10"/><path fill="#e2e0f4" d="M 209.363281 94.5625 L 189.289062 104.15625 L 195.667969 117.503906 L 201.359375 103.617188 L 215.742188 107.910156 Z M 209.363281 94.5625 " fill-opacity="1" fill-rule="nonzero"/><path stroke-linecap="round" transform="matrix(0.75, 0, 0, 0.75, 0.0000045, 29.017855)" fill-opacity="1" fill="#e2e0f4" fill-rule="nonzero" stroke-linejoin="round" d="M 287.656263 105.189742 L 268.479178 99.465783 L 260.890636 117.981409 " stroke="#ffffff" stroke-width="0.567" stroke-opacity="1" stroke-miterlimit="10"/><path stroke-linecap="round" transform="matrix(0.75, 0, 0, 0.75, 0.0000045, 29.017855)" fill-opacity="1" fill="#e2e0f4" fill-rule="nonzero" stroke-linejoin="round" d="M 252.385427 100.184533 L 267.364595 104.13245 C 269.572928 104.715783 271.88022 103.611617 272.812512 101.528283 L 279.151054 87.392865 " stroke="#ffffff" stroke-width="0.567" stroke-opacity="1" stroke-miterlimit="10"/><path fill="#002e5c" d="M 89.191406 229.414062 C 88.835938 230.105469 88.414062 230.75 87.996094 231.398438 C 87.558594 232.035156 87.125 232.675781 86.625 233.269531 C 86.980469 232.578125 87.402344 231.933594 87.820312 231.28125 C 88.257812 230.648438 88.691406 230.007812 89.191406 229.414062 Z M 89.191406 229.414062 " fill-opacity="1" fill-rule="nonzero"/><path fill="#1d262d" d="M 199.195312 376.390625 C 199.066406 376.390625 198.9375 376.394531 198.8125 376.402344 L 198.757812 375.933594 C 198.898438 375.820312 198.976562 375.640625 198.957031 375.449219 C 198.921875 375.15625 198.652344 374.945312 198.359375 374.980469 C 198.066406 375.011719 197.855469 375.28125 197.886719 375.574219 C 197.910156 375.765625 198.03125 375.921875 198.191406 375.996094 L 198.246094 376.464844 C 197.710938 376.554688 197.195312 376.714844 196.703125 376.949219 L 196.945312 377.464844 C 197.648438 377.128906 198.402344 376.957031 199.191406 376.957031 C 199.566406 376.957031 199.9375 377 200.300781 377.078125 L 200.421875 376.519531 C 200.019531 376.433594 199.605469 376.390625 199.195312 376.390625 Z M 199.195312 376.390625 " fill-opacity="1" fill-rule="nonzero"/></svg>