<svg xmlns="http://www.w3.org/2000/svg" xmlns:xlink="http://www.w3.org/1999/xlink" width="500" zoomAndPan="magnify" viewBox="0 0 375 374.999991" height="500" preserveAspectRatio="xMidYMid meet" version="1.0"><rect x="-37.5" width="450" fill="#ffffff" y="-37.499999" height="449.999989" fill-opacity="1"/><rect x="-37.5" width="450" fill="#ffffff" y="-37.499999" height="449.999989" fill-opacity="1"/><rect x="-37.5" width="450" fill="#ffffff" y="-37.499999" height="449.999989" fill-opacity="1"/><path fill="#cfecfb" d="M 310.539062 271.980469 C 364.136719 227.082031 331.027344 104.683594 310.703125 117.570312 C 293.90625 128.21875 297.683594 174.808594 247.167969 167.976562 C 186.882812 159.820312 173.292969 118.632812 95.730469 121.296875 C 18.753906 123.9375 22.539062 219.949219 55.980469 271.980469 Z M 310.539062 271.980469 " fill-opacity="1" fill-rule="nonzero"/><path fill="#cfecfb" d="M 236.203125 156.867188 C 262.90625 165 281.335938 147.96875 291.542969 131.242188 C 301.753906 114.515625 312.972656 109.480469 319.476562 109.855469 C 325.976562 110.226562 318.667969 95.820312 296.085938 106.160156 C 267.300781 119.34375 258.707031 128.636719 238.070312 127.839844 C 218.492188 127.082031 217.367188 151.132812 236.203125 156.867188 Z M 236.203125 156.867188 " fill-opacity="1" fill-rule="nonzero"/><path fill="#cfecfb" d="M 204.089844 126.691406 C 204.421875 127.023438 204.71875 127.386719 204.976562 127.777344 C 205.238281 128.167969 205.457031 128.582031 205.636719 129.015625 C 205.816406 129.453125 205.949219 129.898438 206.039062 130.363281 C 206.128906 130.824219 206.175781 131.292969 206.171875 131.761719 C 206.171875 132.234375 206.121094 132.703125 206.027344 133.164062 C 205.933594 133.628906 205.796875 134.078125 205.613281 134.515625 C 205.433594 134.949219 205.210938 135.367188 204.945312 135.757812 C 204.683594 136.152344 204.382812 136.515625 204.046875 136.851562 C 203.714844 137.1875 203.351562 137.484375 202.957031 137.75 C 202.5625 138.011719 202.148438 138.234375 201.710938 138.417969 C 201.277344 138.601562 200.824219 138.738281 200.363281 138.832031 C 199.898438 138.925781 199.433594 138.972656 198.960938 138.976562 C 198.488281 138.976562 198.023438 138.933594 197.558594 138.84375 C 197.097656 138.753906 196.648438 138.617188 196.214844 138.441406 C 195.777344 138.261719 195.367188 138.042969 194.972656 137.78125 C 194.582031 137.519531 194.222656 137.222656 193.890625 136.890625 C 193.558594 136.558594 193.261719 136.199219 193 135.804688 C 192.738281 135.414062 192.519531 135.003906 192.339844 134.566406 C 192.164062 134.132812 192.027344 133.683594 191.9375 133.222656 C 191.847656 132.757812 191.804688 132.292969 191.804688 131.820312 C 191.808594 131.347656 191.855469 130.882812 191.949219 130.417969 C 192.042969 129.957031 192.179688 129.503906 192.363281 129.070312 C 192.546875 128.632812 192.769531 128.21875 193.03125 127.824219 C 193.296875 127.429688 193.59375 127.066406 193.929688 126.734375 C 194.265625 126.398438 194.628906 126.097656 195.023438 125.835938 C 195.414062 125.570312 195.828125 125.347656 196.265625 125.167969 C 196.703125 124.984375 197.152344 124.847656 197.617188 124.753906 C 198.078125 124.65625 198.546875 124.609375 199.015625 124.609375 C 199.488281 124.605469 199.957031 124.652344 200.417969 124.742188 C 200.878906 124.832031 201.328125 124.964844 201.765625 125.144531 C 202.199219 125.324219 202.613281 125.542969 203.003906 125.804688 C 203.394531 126.0625 203.757812 126.359375 204.089844 126.691406 Z M 204.089844 126.691406 " fill-opacity="1" fill-rule="nonzero"/><path fill="#cfecfb" d="M 183.992188 116.039062 C 184.222656 116.269531 184.425781 116.519531 184.605469 116.792969 C 184.789062 117.0625 184.9375 117.351562 185.0625 117.652344 C 185.1875 117.953125 185.277344 118.265625 185.339844 118.585938 C 185.402344 118.910156 185.433594 119.234375 185.429688 119.5625 C 185.429688 119.890625 185.394531 120.214844 185.328125 120.539062 C 185.261719 120.859375 185.164062 121.171875 185.035156 121.476562 C 184.910156 121.78125 184.753906 122.070312 184.570312 122.34375 C 184.382812 122.617188 184.175781 122.871094 183.941406 123.105469 C 183.707031 123.339844 183.453125 123.546875 183.179688 123.734375 C 182.90625 123.917969 182.617188 124.074219 182.3125 124.199219 C 182.007812 124.328125 181.695312 124.425781 181.375 124.492188 C 181.050781 124.558594 180.726562 124.589844 180.398438 124.59375 C 180.070312 124.597656 179.746094 124.566406 179.425781 124.503906 C 179.101562 124.441406 178.789062 124.351562 178.488281 124.226562 C 178.1875 124.101562 177.898438 123.953125 177.628906 123.769531 C 177.355469 123.589844 177.105469 123.386719 176.875 123.15625 C 176.644531 122.925781 176.4375 122.671875 176.257812 122.402344 C 176.078125 122.128906 175.925781 121.84375 175.804688 121.539062 C 175.679688 121.238281 175.585938 120.925781 175.523438 120.605469 C 175.464844 120.285156 175.433594 119.960938 175.4375 119.632812 C 175.4375 119.304688 175.472656 118.976562 175.539062 118.65625 C 175.605469 118.332031 175.703125 118.019531 175.828125 117.714844 C 175.957031 117.414062 176.113281 117.125 176.296875 116.847656 C 176.480469 116.574219 176.691406 116.320312 176.921875 116.085938 C 177.15625 115.855469 177.410156 115.644531 177.683594 115.460938 C 177.960938 115.277344 178.25 115.121094 178.550781 114.992188 C 178.855469 114.867188 179.167969 114.769531 179.492188 114.703125 C 179.8125 114.636719 180.140625 114.601562 180.46875 114.597656 C 180.796875 114.597656 181.121094 114.625 181.441406 114.6875 C 181.761719 114.75 182.074219 114.84375 182.378906 114.964844 C 182.679688 115.089844 182.964844 115.242188 183.238281 115.421875 C 183.507812 115.601562 183.761719 115.808594 183.992188 116.039062 Z M 183.992188 116.039062 " fill-opacity="1" fill-rule="nonzero"/><path fill="#cfecfb" d="M 168.597656 110.425781 C 168.867188 110.699219 169.074219 111.011719 169.222656 111.367188 C 169.367188 111.722656 169.4375 112.09375 169.4375 112.476562 C 169.433594 112.863281 169.359375 113.234375 169.210938 113.589844 C 169.058594 113.949219 168.847656 114.261719 168.574219 114.535156 C 168.300781 114.8125 167.984375 115.023438 167.628906 115.171875 C 167.273438 115.320312 166.902344 115.398438 166.515625 115.398438 C 166.128906 115.402344 165.757812 115.328125 165.40625 115.183594 C 165.050781 115.039062 164.734375 114.828125 164.464844 114.558594 C 164.195312 114.289062 163.984375 113.972656 163.839844 113.617188 C 163.695312 113.261719 163.621094 112.894531 163.625 112.507812 C 163.625 112.121094 163.703125 111.75 163.851562 111.394531 C 164 111.039062 164.210938 110.722656 164.484375 110.449219 C 164.761719 110.175781 165.074219 109.960938 165.433594 109.8125 C 165.789062 109.664062 166.160156 109.589844 166.546875 109.585938 C 166.929688 109.585938 167.300781 109.65625 167.65625 109.800781 C 168.011719 109.949219 168.324219 110.15625 168.597656 110.425781 Z M 168.597656 110.425781 " fill-opacity="1" fill-rule="nonzero"/><path fill="#cfecfb" d="M 158.289062 109.097656 C 158.492188 109.304688 158.652344 109.542969 158.761719 109.8125 C 158.875 110.082031 158.925781 110.363281 158.925781 110.65625 C 158.925781 110.945312 158.867188 111.226562 158.753906 111.5 C 158.640625 111.769531 158.480469 112.007812 158.273438 112.21875 C 158.066406 112.425781 157.824219 112.585938 157.554688 112.699219 C 157.285156 112.8125 157.003906 112.867188 156.710938 112.871094 C 156.417969 112.871094 156.136719 112.816406 155.867188 112.707031 C 155.597656 112.597656 155.359375 112.4375 155.152344 112.234375 C 154.949219 112.027344 154.789062 111.789062 154.679688 111.519531 C 154.570312 111.25 154.515625 110.96875 154.515625 110.675781 C 154.519531 110.382812 154.574219 110.101562 154.6875 109.832031 C 154.800781 109.5625 154.960938 109.320312 155.171875 109.113281 C 155.378906 108.90625 155.617188 108.746094 155.886719 108.632812 C 156.160156 108.519531 156.441406 108.460938 156.730469 108.460938 C 157.023438 108.460938 157.304688 108.511719 157.574219 108.625 C 157.84375 108.734375 158.082031 108.894531 158.289062 109.097656 Z M 158.289062 109.097656 " fill-opacity="1" fill-rule="nonzero"/><path fill="#50c8f0" d="M 285.410156 111.367188 C 285.410156 112.558594 285.351562 113.742188 285.234375 114.925781 C 285.117188 116.109375 284.941406 117.285156 284.710938 118.453125 C 284.480469 119.617188 284.191406 120.769531 283.84375 121.90625 C 283.5 123.046875 283.101562 124.164062 282.644531 125.261719 C 282.191406 126.359375 281.683594 127.433594 281.121094 128.484375 C 280.5625 129.53125 279.949219 130.550781 279.289062 131.539062 C 278.628906 132.527344 277.921875 133.484375 277.167969 134.402344 C 276.414062 135.320312 275.613281 136.203125 274.773438 137.042969 C 273.933594 137.882812 273.054688 138.679688 272.132812 139.433594 C 271.214844 140.191406 270.261719 140.898438 269.273438 141.558594 C 268.28125 142.21875 267.265625 142.828125 266.214844 143.390625 C 265.167969 143.949219 264.09375 144.457031 262.992188 144.914062 C 261.894531 145.367188 260.777344 145.769531 259.640625 146.113281 C 258.5 146.460938 257.347656 146.746094 256.183594 146.980469 C 255.015625 147.210938 253.839844 147.386719 252.65625 147.503906 C 251.472656 147.617188 250.289062 147.675781 249.097656 147.675781 C 247.910156 147.675781 246.722656 147.617188 245.539062 147.503906 C 244.355469 147.386719 243.179688 147.210938 242.015625 146.980469 C 240.847656 146.746094 239.695312 146.460938 238.558594 146.113281 C 237.421875 145.769531 236.300781 145.367188 235.203125 144.914062 C 234.105469 144.457031 233.03125 143.949219 231.984375 143.390625 C 230.933594 142.828125 229.914062 142.21875 228.925781 141.558594 C 227.9375 140.898438 226.984375 140.191406 226.0625 139.433594 C 225.144531 138.679688 224.265625 137.882812 223.425781 137.042969 C 222.582031 136.203125 221.785156 135.320312 221.03125 134.402344 C 220.277344 133.484375 219.570312 132.527344 218.910156 131.539062 C 218.246094 130.550781 217.636719 129.53125 217.078125 128.484375 C 216.515625 127.433594 216.007812 126.359375 215.554688 125.261719 C 215.097656 124.164062 214.699219 123.046875 214.351562 121.90625 C 214.007812 120.769531 213.71875 119.617188 213.488281 118.449219 C 213.253906 117.285156 213.082031 116.109375 212.964844 114.925781 C 212.847656 113.742188 212.789062 112.558594 212.789062 111.367188 C 212.789062 110.179688 212.847656 108.992188 212.964844 107.808594 C 213.082031 106.625 213.253906 105.449219 213.488281 104.285156 C 213.71875 103.117188 214.007812 101.964844 214.351562 100.828125 C 214.699219 99.6875 215.097656 98.570312 215.554688 97.472656 C 216.007812 96.375 216.515625 95.300781 217.078125 94.25 C 217.636719 93.203125 218.246094 92.183594 218.910156 91.195312 C 219.570312 90.207031 220.277344 89.253906 221.03125 88.332031 C 221.785156 87.414062 222.582031 86.535156 223.425781 85.691406 C 224.265625 84.851562 225.144531 84.054688 226.0625 83.300781 C 226.984375 82.546875 227.9375 81.835938 228.925781 81.175781 C 229.914062 80.515625 230.933594 79.90625 231.984375 79.34375 C 233.03125 78.785156 234.105469 78.277344 235.203125 77.820312 C 236.300781 77.367188 237.421875 76.964844 238.558594 76.621094 C 239.695312 76.277344 240.847656 75.988281 242.015625 75.753906 C 243.179688 75.523438 244.355469 75.347656 245.539062 75.234375 C 246.722656 75.117188 247.910156 75.058594 249.097656 75.058594 C 250.289062 75.058594 251.472656 75.117188 252.65625 75.234375 C 253.839844 75.347656 255.015625 75.523438 256.183594 75.753906 C 257.347656 75.988281 258.5 76.277344 259.640625 76.621094 C 260.777344 76.964844 261.894531 77.367188 262.992188 77.820312 C 264.09375 78.277344 265.167969 78.785156 266.214844 79.34375 C 267.265625 79.90625 268.28125 80.515625 269.273438 81.175781 C 270.261719 81.835938 271.214844 82.546875 272.132812 83.300781 C 273.054688 84.054688 273.933594 84.851562 274.773438 85.691406 C 275.613281 86.535156 276.414062 87.414062 277.167969 88.332031 C 277.921875 89.253906 278.628906 90.207031 279.289062 91.195312 C 279.949219 92.183594 280.5625 93.203125 281.121094 94.25 C 281.683594 95.300781 282.191406 96.375 282.644531 97.472656 C 283.101562 98.570312 283.5 99.6875 283.84375 100.828125 C 284.191406 101.964844 284.480469 103.117188 284.710938 104.285156 C 284.941406 105.449219 285.117188 106.625 285.234375 107.808594 C 285.351562 108.992188 285.410156 110.179688 285.410156 111.367188 Z M 285.410156 111.367188 " fill-opacity="1" fill-rule="nonzero"/><path fill="#8cd6f3" d="M 266.238281 111.367188 C 266.238281 111.929688 266.210938 112.488281 266.15625 113.046875 C 266.101562 113.605469 266.019531 114.160156 265.910156 114.710938 C 265.800781 115.261719 265.664062 115.804688 265.5 116.34375 C 265.335938 116.878906 265.148438 117.40625 264.933594 117.925781 C 264.71875 118.445312 264.480469 118.953125 264.214844 119.445312 C 263.949219 119.941406 263.660156 120.421875 263.351562 120.890625 C 263.039062 121.355469 262.703125 121.808594 262.347656 122.242188 C 261.992188 122.675781 261.617188 123.089844 261.21875 123.488281 C 260.820312 123.882812 260.40625 124.261719 259.972656 124.617188 C 259.539062 124.972656 259.089844 125.308594 258.621094 125.617188 C 258.15625 125.929688 257.671875 126.21875 257.179688 126.484375 C 256.683594 126.746094 256.175781 126.988281 255.65625 127.203125 C 255.140625 127.417969 254.613281 127.605469 254.074219 127.769531 C 253.539062 127.933594 252.992188 128.070312 252.441406 128.179688 C 251.890625 128.289062 251.335938 128.371094 250.777344 128.425781 C 250.21875 128.480469 249.660156 128.507812 249.097656 128.507812 C 248.539062 128.507812 247.976562 128.480469 247.417969 128.425781 C 246.859375 128.371094 246.304688 128.289062 245.753906 128.179688 C 245.203125 128.070312 244.660156 127.933594 244.125 127.769531 C 243.585938 127.605469 243.058594 127.417969 242.539062 127.203125 C 242.019531 126.988281 241.515625 126.746094 241.019531 126.484375 C 240.523438 126.21875 240.042969 125.929688 239.578125 125.617188 C 239.109375 125.308594 238.660156 124.972656 238.226562 124.617188 C 237.792969 124.261719 237.375 123.882812 236.980469 123.488281 C 236.582031 123.089844 236.207031 122.675781 235.851562 122.242188 C 235.492188 121.808594 235.160156 121.355469 234.847656 120.890625 C 234.535156 120.421875 234.246094 119.941406 233.984375 119.445312 C 233.71875 118.953125 233.480469 118.445312 233.265625 117.925781 C 233.050781 117.40625 232.859375 116.878906 232.695312 116.34375 C 232.535156 115.804688 232.398438 115.261719 232.289062 114.710938 C 232.179688 114.160156 232.097656 113.605469 232.042969 113.046875 C 231.988281 112.488281 231.960938 111.929688 231.960938 111.367188 C 231.960938 110.804688 231.988281 110.246094 232.042969 109.6875 C 232.097656 109.128906 232.179688 108.574219 232.289062 108.023438 C 232.398438 107.472656 232.535156 106.929688 232.695312 106.390625 C 232.859375 105.855469 233.050781 105.328125 233.265625 104.808594 C 233.480469 104.289062 233.71875 103.78125 233.984375 103.289062 C 234.246094 102.792969 234.535156 102.3125 234.847656 101.84375 C 235.160156 101.378906 235.492188 100.929688 235.851562 100.496094 C 236.207031 100.058594 236.582031 99.644531 236.980469 99.246094 C 237.375 98.851562 237.792969 98.472656 238.226562 98.117188 C 238.660156 97.761719 239.109375 97.429688 239.578125 97.117188 C 240.042969 96.804688 240.523438 96.515625 241.019531 96.25 C 241.515625 95.988281 242.019531 95.746094 242.539062 95.53125 C 243.058594 95.316406 243.585938 95.128906 244.125 94.964844 C 244.660156 94.804688 245.203125 94.667969 245.753906 94.558594 C 246.304688 94.449219 246.859375 94.367188 247.417969 94.308594 C 247.976562 94.253906 248.539062 94.226562 249.097656 94.226562 C 249.660156 94.226562 250.21875 94.253906 250.777344 94.308594 C 251.335938 94.367188 251.890625 94.449219 252.441406 94.558594 C 252.992188 94.667969 253.539062 94.804688 254.074219 94.964844 C 254.613281 95.128906 255.140625 95.316406 255.65625 95.53125 C 256.175781 95.746094 256.683594 95.988281 257.179688 96.25 C 257.671875 96.515625 258.15625 96.804688 258.621094 97.117188 C 259.089844 97.429688 259.539062 97.761719 259.972656 98.117188 C 260.40625 98.472656 260.820312 98.851562 261.21875 99.246094 C 261.617188 99.644531 261.992188 100.058594 262.347656 100.496094 C 262.703125 100.929688 263.039062 101.378906 263.351562 101.84375 C 263.660156 102.3125 263.949219 102.792969 264.214844 103.289062 C 264.480469 103.78125 264.71875 104.289062 264.933594 104.808594 C 265.148438 105.328125 265.335938 105.855469 265.5 106.390625 C 265.664062 106.929688 265.800781 107.472656 265.910156 108.023438 C 266.019531 108.574219 266.101562 109.128906 266.15625 109.6875 C 266.210938 110.246094 266.238281 110.804688 266.238281 111.367188 Z M 266.238281 111.367188 " fill-opacity="1" fill-rule="nonzero"/><path fill="#00bceb" d="M 249.097656 72.988281 C 227.355469 72.988281 209.730469 90.613281 209.730469 112.355469 C 209.730469 134.097656 227.355469 151.722656 249.097656 151.722656 C 270.839844 151.722656 288.464844 134.097656 288.464844 112.355469 C 288.464844 90.613281 270.839844 72.988281 249.097656 72.988281 Z M 249.097656 147.566406 C 229.652344 147.566406 213.890625 131.800781 213.890625 112.355469 C 213.890625 92.910156 229.652344 77.144531 249.097656 77.144531 C 268.546875 77.144531 284.308594 92.910156 284.308594 112.355469 C 284.308594 131.800781 268.546875 147.566406 249.097656 147.566406 Z M 249.097656 147.566406 " fill-opacity="1" fill-rule="nonzero"/><path fill="#009fdf" d="M 249.097656 71.011719 C 226.8125 71.011719 208.746094 89.082031 208.746094 111.367188 C 208.746094 133.65625 226.8125 151.722656 249.097656 151.722656 C 271.386719 151.722656 289.453125 133.65625 289.453125 111.367188 C 289.453125 89.082031 271.386719 71.011719 249.097656 71.011719 Z M 249.097656 147.460938 C 229.164062 147.460938 213.007812 131.300781 213.007812 111.367188 C 213.007812 91.433594 229.164062 75.273438 249.097656 75.273438 C 269.03125 75.273438 285.191406 91.433594 285.191406 111.367188 C 285.191406 131.300781 269.035156 147.460938 249.097656 147.460938 Z M 249.097656 147.460938 " fill-opacity="1" fill-rule="nonzero"/><path fill="#ffffff" d="M 255.738281 111.367188 C 255.738281 111.804688 255.695312 112.234375 255.609375 112.664062 C 255.527344 113.089844 255.398438 113.503906 255.234375 113.910156 C 255.066406 114.3125 254.863281 114.695312 254.621094 115.054688 C 254.378906 115.417969 254.101562 115.753906 253.792969 116.0625 C 253.484375 116.371094 253.148438 116.644531 252.789062 116.886719 C 252.425781 117.128906 252.042969 117.335938 251.640625 117.5 C 251.238281 117.667969 250.820312 117.792969 250.394531 117.878906 C 249.964844 117.964844 249.535156 118.007812 249.097656 118.007812 C 248.664062 118.007812 248.230469 117.964844 247.804688 117.878906 C 247.375 117.792969 246.960938 117.667969 246.558594 117.5 C 246.15625 117.335938 245.773438 117.128906 245.410156 116.886719 C 245.046875 116.644531 244.710938 116.371094 244.402344 116.0625 C 244.09375 115.753906 243.820312 115.417969 243.578125 115.054688 C 243.335938 114.695312 243.132812 114.3125 242.964844 113.910156 C 242.796875 113.503906 242.671875 113.089844 242.585938 112.664062 C 242.5 112.234375 242.460938 111.804688 242.460938 111.367188 C 242.460938 110.929688 242.5 110.5 242.585938 110.070312 C 242.671875 109.644531 242.796875 109.230469 242.964844 108.828125 C 243.132812 108.421875 243.335938 108.042969 243.578125 107.679688 C 243.820312 107.316406 244.09375 106.980469 244.402344 106.671875 C 244.710938 106.363281 245.046875 106.089844 245.410156 105.847656 C 245.773438 105.605469 246.15625 105.398438 246.558594 105.234375 C 246.960938 105.066406 247.375 104.941406 247.804688 104.855469 C 248.230469 104.769531 248.664062 104.726562 249.097656 104.726562 C 249.535156 104.726562 249.964844 104.769531 250.394531 104.855469 C 250.820312 104.941406 251.238281 105.066406 251.640625 105.234375 C 252.042969 105.398438 252.425781 105.605469 252.789062 105.847656 C 253.148438 106.089844 253.484375 106.363281 253.792969 106.671875 C 254.101562 106.980469 254.378906 107.316406 254.621094 107.679688 C 254.863281 108.042969 255.066406 108.421875 255.234375 108.828125 C 255.398438 109.230469 255.527344 109.644531 255.609375 110.070312 C 255.695312 110.5 255.738281 110.929688 255.738281 111.367188 Z M 255.738281 111.367188 " fill-opacity="1" fill-rule="nonzero"/><path fill="#ffffff" d="M 249.101562 112.878906 C 248.265625 112.878906 247.585938 112.203125 247.585938 111.367188 L 247.585938 80.269531 C 247.585938 79.433594 248.265625 78.757812 249.101562 78.757812 C 249.933594 78.757812 250.613281 79.433594 250.613281 80.269531 L 250.613281 111.367188 C 250.613281 112.203125 249.933594 112.878906 249.101562 112.878906 Z M 249.101562 112.878906 " fill-opacity="1" fill-rule="nonzero"/><path fill="#ffffff" d="M 264.125 133.929688 L 247.890625 112.273438 C 247.386719 111.605469 247.523438 110.65625 248.191406 110.15625 C 248.859375 109.65625 249.808594 109.792969 250.308594 110.460938 L 266.546875 132.113281 C 267.046875 132.78125 266.910156 133.730469 266.242188 134.230469 C 265.574219 134.730469 264.625 134.597656 264.125 133.929688 Z M 264.125 133.929688 " fill-opacity="1" fill-rule="nonzero"/><path fill="#afb1b3" d="M 167.152344 206.742188 L 183.40625 206.742188 L 183.40625 234.183594 L 167.152344 234.183594 Z M 167.152344 206.742188 " fill-opacity="1" fill-rule="nonzero"/><path fill="#818386" d="M 184.039062 219.644531 L 184 206.207031 L 167.746094 206.253906 L 167.777344 217.414062 C 173.226562 217.96875 178.640625 218.757812 184.039062 219.644531 Z M 184.039062 219.644531 " fill-opacity="1" fill-rule="nonzero"/><path fill="#002545" d="M 199.050781 216.273438 L 152.753906 216.410156 C 149.671875 216.417969 147.164062 213.925781 147.15625 210.84375 L 147.097656 191.078125 C 147.089844 187.996094 149.582031 185.488281 152.664062 185.480469 L 198.964844 185.347656 C 202.046875 185.339844 204.554688 187.832031 204.5625 190.914062 L 204.617188 210.675781 C 204.628906 213.757812 202.136719 216.265625 199.050781 216.273438 Z M 199.050781 216.273438 " fill-opacity="1" fill-rule="nonzero"/><path fill="#002545" d="M 196.933594 227.414062 L 154.9375 227.535156 C 150.667969 227.546875 147.214844 231.019531 147.226562 235.292969 L 147.351562 279.195312 C 147.367188 283.464844 150.839844 286.917969 155.109375 286.90625 L 197.105469 286.785156 C 201.375 286.773438 204.828125 283.300781 204.816406 279.027344 L 204.6875 235.125 C 204.675781 230.855469 201.203125 227.402344 196.933594 227.414062 Z M 196.933594 227.414062 " fill-opacity="1" fill-rule="nonzero"/><path fill="#86bf5d" d="M 314.050781 257.175781 C 314.949219 238.410156 321.371094 219.332031 332.753906 202.847656 C 335.675781 198.683594 339.691406 195.511719 343.328125 194.078125 C 344.21875 193.691406 345.101562 193.4375 345.941406 193.285156 C 346.777344 193.132812 347.558594 193.074219 348.261719 193.117188 C 349.675781 193.203125 350.800781 193.699219 351.519531 194.625 C 352.242188 195.550781 352.472656 196.777344 352.324219 198.144531 C 352.25 198.832031 352.078125 199.550781 351.820312 200.292969 C 351.558594 201.027344 351.21875 201.792969 350.832031 202.597656 C 349.203125 205.730469 346.578125 209.132812 343.203125 212.019531 C 330.011719 223.53125 319.523438 239.203125 314.050781 257.175781 Z M 314.050781 257.175781 " fill-opacity="1" fill-rule="nonzero"/><path fill="#86bf5d" d="M 318.886719 252.917969 C 312.070312 235.414062 310.167969 215.371094 313.855469 195.683594 C 314.832031 190.691406 317.207031 186.160156 319.941406 183.367188 C 320.597656 182.65625 321.304688 182.0625 322.007812 181.582031 C 322.707031 181.101562 323.394531 180.730469 324.058594 180.484375 C 325.386719 179.988281 326.613281 179.984375 327.648438 180.535156 C 328.683594 181.085938 329.394531 182.109375 329.816406 183.421875 C 330.027344 184.078125 330.164062 184.808594 330.230469 185.589844 C 330.289062 186.367188 330.289062 187.203125 330.265625 188.09375 C 330.050781 191.621094 329.035156 195.796875 327.128906 199.808594 C 319.769531 215.691406 316.570312 234.277344 318.886719 252.917969 Z M 318.886719 252.917969 " fill-opacity="1" fill-rule="nonzero"/><path fill="#86bf5d" d="M 310.363281 246.855469 C 308.09375 234.03125 302.179688 222.371094 294.058594 213.347656 C 291.976562 211.078125 290.449219 208.519531 289.589844 206.226562 C 288.742188 203.941406 288.625 201.851562 289.777344 200.679688 C 290.910156 199.53125 293.078125 199.679688 295.464844 200.984375 C 297.847656 202.277344 300.347656 204.796875 302.011719 207.902344 C 308.476562 220.195312 311.308594 233.863281 310.363281 246.855469 Z M 310.363281 246.855469 " fill-opacity="1" fill-rule="nonzero"/><path fill="#26a9e0" d="M 330.5625 267.078125 L 335.5 233.675781 L 298.425781 233.675781 L 303.363281 267.078125 Z M 330.5625 267.078125 " fill-opacity="1" fill-rule="nonzero"/><path fill="#008ec2" d="M 330.5625 267.078125 C 318.414062 262.539062 307.945312 257.109375 301.152344 252.125 L 303.363281 267.078125 Z M 330.5625 267.078125 " fill-opacity="1" fill-rule="nonzero"/><path fill="#00739c" d="M 335.867188 236.128906 L 336.242188 233.675781 L 297.683594 233.675781 L 298.058594 236.128906 Z M 335.867188 236.128906 " fill-opacity="1" fill-rule="nonzero"/><path fill="#26a9e0" d="M 264.261719 201.878906 L 260.640625 186.765625 " fill-opacity="1" fill-rule="nonzero"/><path fill="#f4c6ba" d="M 102.660156 157.617188 L 113.964844 157.085938 L 115.019531 179.53125 L 103.714844 180.0625 Z M 102.660156 157.617188 " fill-opacity="1" fill-rule="nonzero"/><path fill="#ef9c9c" d="M 111.203125 166.695312 C 112.277344 167.085938 113.371094 167.546875 114.476562 168.011719 L 113.96875 157.089844 L 102.660156 157.617188 L 102.933594 163.480469 C 105.6875 164.5625 108.421875 165.683594 111.203125 166.695312 Z M 111.203125 166.695312 " fill-opacity="1" fill-rule="nonzero"/><path fill="#f4c6ba" d="M 137.035156 135.121094 C 137.332031 138.742188 134.898438 141.898438 131.601562 142.167969 C 128.300781 142.4375 127.992188 139.503906 127.695312 135.882812 C 127.398438 132.257812 127.234375 129.3125 130.53125 129.042969 C 133.828125 128.777344 136.742188 131.496094 137.035156 135.121094 Z M 137.035156 135.121094 " fill-opacity="1" fill-rule="nonzero"/><path fill="#cd7a6a" d="M 131.183594 137.902344 C 131.828125 138.214844 131.96875 137.132812 131.929688 136.652344 C 131.894531 136.203125 131.800781 135.738281 131.929688 135.300781 C 132.070312 134.828125 132.558594 134.367188 133.070312 134.363281 C 133.277344 134.363281 133.617188 134.488281 133.710938 134.230469 C 133.808594 133.976562 133.5 133.714844 133.332031 133.582031 C 132.832031 133.175781 132.3125 132.914062 131.648438 132.964844 C 130.351562 133.074219 130.417969 134.226562 130.535156 135.648438 C 130.578125 136.171875 130.558594 137.484375 131.066406 137.832031 C 131.109375 137.863281 131.148438 137.886719 131.183594 137.902344 Z M 131.183594 137.902344 " fill-opacity="1" fill-rule="nonzero"/><path fill="#f4c6ba" d="M 87.40625 149.140625 C 89.097656 152.359375 92.84375 153.722656 95.773438 152.183594 C 98.703125 150.644531 97.394531 148 95.703125 144.78125 C 94.015625 141.5625 92.578125 138.984375 89.652344 140.523438 C 86.722656 142.0625 85.71875 145.921875 87.40625 149.140625 Z M 87.40625 149.140625 " fill-opacity="1" fill-rule="nonzero"/><path fill="#cd7a6a" d="M 93.839844 148.359375 C 93.464844 148.964844 92.765625 148.125 92.542969 147.703125 C 92.328125 147.300781 92.160156 146.859375 91.816406 146.558594 C 91.445312 146.234375 90.789062 146.105469 90.355469 146.375 C 90.179688 146.488281 89.957031 146.773438 89.742188 146.609375 C 89.523438 146.445312 89.644531 146.058594 89.714844 145.855469 C 89.917969 145.246094 90.21875 144.746094 90.808594 144.433594 C 91.960938 143.832031 92.523438 144.839844 93.183594 146.105469 C 93.429688 146.570312 94.148438 147.664062 93.902344 148.234375 C 93.882812 148.28125 93.863281 148.320312 93.839844 148.359375 Z M 93.839844 148.359375 " fill-opacity="1" fill-rule="nonzero"/><path fill="#6c341e" d="M 131.15625 124.019531 C 131.328125 124.640625 131.46875 125.273438 131.582031 125.910156 C 131.695312 126.546875 131.78125 127.191406 131.832031 127.835938 C 131.886719 128.480469 131.90625 129.125 131.898438 129.769531 C 131.890625 130.414062 131.851562 131.058594 131.78125 131.695312 C 131.714844 132.335938 131.613281 132.972656 131.484375 133.601562 C 131.355469 134.226562 131.199219 134.847656 131.007812 135.457031 C 130.820312 136.070312 130.605469 136.667969 130.359375 137.253906 C 130.113281 137.84375 129.839844 138.414062 129.539062 138.972656 C 129.242188 139.53125 128.914062 140.074219 128.5625 140.597656 C 128.210938 141.121094 127.835938 141.625 127.433594 142.109375 C 127.035156 142.59375 126.609375 143.054688 126.164062 143.492188 C 125.71875 143.933594 125.253906 144.347656 124.769531 144.742188 C 124.285156 145.132812 123.78125 145.496094 123.257812 145.835938 C 122.738281 146.175781 122.203125 146.484375 121.648438 146.769531 C 121.097656 147.054688 120.535156 147.308594 119.957031 147.53125 C 119.378906 147.757812 118.792969 147.953125 118.195312 148.117188 C 117.597656 148.285156 116.996094 148.417969 116.382812 148.519531 C 115.773438 148.621094 115.15625 148.695312 114.539062 148.734375 C 113.917969 148.773438 113.300781 148.78125 112.675781 148.757812 C 112.054688 148.734375 111.4375 148.679688 110.820312 148.59375 C 110.203125 148.507812 109.589844 148.390625 108.980469 148.242188 C 108.375 148.089844 107.773438 147.914062 107.183594 147.703125 C 106.589844 147.492188 106.007812 147.253906 105.4375 146.984375 C 104.867188 146.714844 104.308594 146.417969 103.765625 146.09375 C 103.222656 145.769531 102.691406 145.417969 102.179688 145.039062 C 101.667969 144.660156 101.175781 144.257812 100.699219 143.832031 C 100.226562 143.402344 99.769531 142.953125 99.335938 142.480469 C 98.902344 142.007812 98.492188 141.515625 98.105469 141 C 97.71875 140.488281 97.355469 139.953125 97.015625 139.40625 C 96.675781 138.855469 96.367188 138.289062 96.078125 137.710938 C 95.792969 137.128906 95.535156 136.539062 95.304688 135.933594 C 95.074219 135.328125 94.875 134.710938 94.703125 134.085938 C 94.53125 133.464844 94.386719 132.832031 94.273438 132.195312 C 94.160156 131.558594 94.078125 130.914062 94.023438 130.269531 C 93.972656 129.625 93.949219 128.980469 93.957031 128.335938 C 93.964844 127.691406 94.003906 127.046875 94.074219 126.40625 C 94.144531 125.769531 94.242188 125.132812 94.371094 124.503906 C 94.5 123.875 94.660156 123.257812 94.847656 122.648438 C 95.035156 122.035156 95.253906 121.4375 95.5 120.847656 C 95.742188 120.261719 96.015625 119.6875 96.316406 119.132812 C 96.617188 118.574219 96.941406 118.03125 97.292969 117.507812 C 97.648438 116.984375 98.023438 116.480469 98.421875 115.996094 C 98.824219 115.511719 99.246094 115.050781 99.691406 114.613281 C 100.136719 114.171875 100.601562 113.757812 101.089844 113.363281 C 101.574219 112.972656 102.078125 112.609375 102.597656 112.269531 C 103.121094 111.929688 103.65625 111.617188 104.207031 111.335938 C 104.757812 111.050781 105.324219 110.796875 105.902344 110.570312 C 106.476562 110.347656 107.066406 110.152344 107.664062 109.988281 C 108.257812 109.820312 108.863281 109.6875 109.472656 109.585938 C 110.085938 109.480469 110.699219 109.410156 111.320312 109.371094 C 111.9375 109.332031 112.558594 109.324219 113.179688 109.347656 C 113.800781 109.371094 114.421875 109.425781 115.039062 109.511719 C 115.65625 109.597656 116.269531 109.714844 116.875 109.863281 C 117.484375 110.015625 118.082031 110.191406 118.675781 110.402344 C 119.269531 110.613281 119.847656 110.851562 120.421875 111.121094 C 120.992188 111.390625 121.546875 111.6875 122.09375 112.011719 C 122.636719 112.335938 123.164062 112.6875 123.675781 113.066406 C 124.1875 113.445312 124.683594 113.847656 125.15625 114.273438 C 125.632812 114.703125 126.085938 115.152344 126.519531 115.625 C 126.953125 116.097656 127.363281 116.589844 127.753906 117.105469 C 128.140625 117.617188 128.503906 118.152344 128.839844 118.699219 C 129.179688 119.25 129.492188 119.816406 129.777344 120.394531 C 130.0625 120.976562 130.320312 121.566406 130.550781 122.171875 C 130.78125 122.777344 130.984375 123.394531 131.15625 124.019531 Z M 131.15625 124.019531 " fill-opacity="1" fill-rule="nonzero"/><path fill="#6c341e" d="M 112.402344 129.199219 C 112.574219 129.824219 112.726562 130.453125 112.859375 131.085938 C 112.988281 131.714844 113.101562 132.351562 113.191406 132.984375 C 113.28125 133.617188 113.347656 134.25 113.394531 134.882812 C 113.441406 135.511719 113.464844 136.136719 113.46875 136.757812 C 113.472656 137.378906 113.453125 137.988281 113.414062 138.59375 C 113.371094 139.195312 113.308594 139.789062 113.226562 140.371094 C 113.144531 140.953125 113.039062 141.523438 112.914062 142.074219 C 112.785156 142.628906 112.640625 143.167969 112.472656 143.6875 C 112.308594 144.210938 112.121094 144.710938 111.914062 145.195312 C 111.707031 145.679688 111.484375 146.140625 111.238281 146.582031 C 110.996094 147.023438 110.734375 147.441406 110.457031 147.835938 C 110.175781 148.226562 109.882812 148.597656 109.570312 148.941406 C 109.257812 149.28125 108.933594 149.597656 108.59375 149.886719 C 108.25 150.175781 107.898438 150.4375 107.53125 150.671875 C 107.164062 150.902344 106.785156 151.105469 106.394531 151.28125 C 106.007812 151.453125 105.609375 151.597656 105.199219 151.707031 C 104.792969 151.820312 104.375 151.902344 103.953125 151.953125 C 103.527344 152.003906 103.101562 152.027344 102.664062 152.015625 C 102.230469 152.003906 101.792969 151.960938 101.351562 151.886719 C 100.914062 151.816406 100.46875 151.710938 100.027344 151.574219 C 99.582031 151.441406 99.140625 151.277344 98.699219 151.082031 C 98.257812 150.886719 97.820312 150.664062 97.382812 150.410156 C 96.949219 150.15625 96.519531 149.875 96.09375 149.566406 C 95.667969 149.257812 95.25 148.921875 94.839844 148.558594 C 94.429688 148.199219 94.027344 147.8125 93.636719 147.402344 C 93.242188 146.988281 92.863281 146.554688 92.492188 146.097656 C 92.121094 145.644531 91.761719 145.164062 91.417969 144.667969 C 91.074219 144.171875 90.746094 143.65625 90.429688 143.121094 C 90.113281 142.585938 89.8125 142.039062 89.53125 141.472656 C 89.246094 140.910156 88.980469 140.332031 88.730469 139.742188 C 88.480469 139.152344 88.25 138.550781 88.039062 137.941406 C 87.828125 137.328125 87.636719 136.710938 87.464844 136.085938 C 87.292969 135.464844 87.140625 134.835938 87.007812 134.203125 C 86.875 133.570312 86.765625 132.9375 86.675781 132.300781 C 86.585938 131.667969 86.519531 131.035156 86.472656 130.40625 C 86.425781 129.773438 86.402344 129.148438 86.398438 128.527344 C 86.394531 127.910156 86.414062 127.296875 86.453125 126.695312 C 86.492188 126.089844 86.554688 125.496094 86.640625 124.914062 C 86.722656 124.332031 86.828125 123.765625 86.953125 123.210938 C 87.078125 122.65625 87.226562 122.117188 87.390625 121.597656 C 87.558594 121.074219 87.746094 120.574219 87.953125 120.089844 C 88.15625 119.605469 88.382812 119.144531 88.625 118.703125 C 88.871094 118.261719 89.132812 117.847656 89.410156 117.453125 C 89.6875 117.058594 89.984375 116.691406 90.296875 116.347656 C 90.605469 116.003906 90.933594 115.6875 91.273438 115.398438 C 91.613281 115.109375 91.96875 114.847656 92.335938 114.617188 C 92.703125 114.382812 93.082031 114.179688 93.46875 114.007812 C 93.859375 113.832031 94.257812 113.691406 94.667969 113.578125 C 95.074219 113.464844 95.492188 113.382812 95.914062 113.332031 C 96.335938 113.28125 96.765625 113.261719 97.199219 113.273438 C 97.632812 113.28125 98.070312 113.324219 98.511719 113.398438 C 98.953125 113.472656 99.394531 113.574219 99.839844 113.710938 C 100.28125 113.84375 100.726562 114.011719 101.167969 114.207031 C 101.609375 114.398438 102.046875 114.625 102.480469 114.878906 C 102.917969 115.128906 103.347656 115.410156 103.773438 115.71875 C 104.195312 116.027344 104.613281 116.363281 105.027344 116.726562 C 105.4375 117.089844 105.839844 117.472656 106.230469 117.886719 C 106.621094 118.296875 107.003906 118.730469 107.375 119.1875 C 107.746094 119.644531 108.101562 120.121094 108.445312 120.617188 C 108.792969 121.117188 109.121094 121.632812 109.4375 122.164062 C 109.753906 122.699219 110.050781 123.246094 110.335938 123.8125 C 110.621094 124.378906 110.886719 124.953125 111.136719 125.546875 C 111.382812 126.136719 111.613281 126.734375 111.824219 127.347656 C 112.039062 127.957031 112.230469 128.574219 112.402344 129.199219 Z M 112.402344 129.199219 " fill-opacity="1" fill-rule="nonzero"/><path fill="#f4c6ba" d="M 130.398438 135.0625 C 133.96875 147.976562 128.429688 159.855469 118.320312 162.648438 C 108.210938 165.441406 97.359375 158.09375 93.792969 145.179688 C 90.222656 132.265625 94.863281 117.132812 104.972656 114.339844 C 115.082031 111.546875 126.832031 122.148438 130.398438 135.0625 Z M 130.398438 135.0625 " fill-opacity="1" fill-rule="nonzero"/><path fill="#cf8d70" d="M 127.550781 128.039062 C 125.917969 128.414062 124.238281 128.597656 122.566406 128.582031 C 121.425781 128.570312 120.28125 128.464844 119.15625 128.300781 C 112.734375 127.375 106.707031 124.566406 102.132812 120.359375 C 100.671875 124.992188 98.011719 129.257812 95.160156 133.324219 C 94.480469 134.300781 93.777344 135.277344 92.851562 136.050781 C 92.765625 136.121094 92.679688 136.191406 92.59375 136.253906 C 92.597656 127.839844 95.695312 119.859375 101.175781 116.109375 C 102.292969 115.722656 103.4375 115.398438 104.585938 115.105469 C 106.453125 114.625 108.355469 114.207031 110.269531 114.023438 C 110.273438 114.023438 110.277344 114.019531 110.285156 114.027344 C 116.90625 114.976562 123.515625 120.605469 127.550781 128.039062 Z M 127.550781 128.039062 " fill-opacity="1" fill-rule="nonzero"/><path fill="#6c341e" d="M 122.296875 127.597656 C 124.519531 127.621094 126.761719 127.285156 128.898438 126.609375 C 128.53125 124.542969 127.855469 122.53125 126.890625 120.660156 C 126.03125 118.984375 124.914062 117.390625 123.347656 116.253906 C 122.648438 115.746094 121.871094 115.335938 121.074219 114.972656 C 118.226562 113.671875 115.058594 112.90625 111.839844 112.941406 C 109.304688 112.96875 106.78125 113.484375 104.308594 114.121094 C 102.09375 114.691406 99.886719 115.367188 97.863281 116.414062 C 95.835938 117.460938 93.988281 118.902344 92.777344 120.75 C 91.980469 121.964844 91.480469 123.324219 90.996094 124.667969 C 90.453125 126.175781 89.917969 127.691406 89.5625 129.242188 C 89.027344 131.609375 88.921875 134.039062 89.25 136.40625 C 90.46875 136.414062 91.652344 135.847656 92.578125 135.070312 C 93.503906 134.292969 94.207031 133.316406 94.886719 132.347656 C 97.738281 128.273438 100.398438 124.011719 101.863281 119.378906 C 106.4375 123.585938 112.460938 126.394531 118.882812 127.320312 C 120.011719 127.480469 121.152344 127.585938 122.296875 127.597656 Z M 122.296875 127.597656 " fill-opacity="1" fill-rule="nonzero"/><path stroke-linecap="round" transform="matrix(0.75, 0, 0, 0.75, 0.0000045, 0)" fill="none" stroke-linejoin="round" d="M 148.234379 186.166679 C 148.692712 187.281262 149.151045 188.286471 149.44792 188.708346 C 149.44792 188.708346 154.255212 185.786471 156.119796 189.130221 C 158.260421 192.968763 154.276046 196.067721 154.276046 196.067721 " stroke="#6c341e" stroke-width="1.912" stroke-opacity="1" stroke-miterlimit="10"/><path stroke-linecap="round" transform="matrix(0.75, 0, 0, 0.75, 0.0000045, 0)" fill="none" stroke-linejoin="round" d="M 164.104171 175.526053 C 164.104171 175.526053 162.041671 172.50522 158.281254 174.302095 " stroke="#6c341e" stroke-width="1.912" stroke-opacity="1" stroke-miterlimit="10"/><path stroke-linecap="round" transform="matrix(0.75, 0, 0, 0.75, 0.0000045, 0)" fill="none" stroke-linejoin="round" d="M 129.432294 184.677095 C 129.432294 184.677095 129.656253 181.026054 133.802086 180.635429 " stroke="#6c341e" stroke-width="1.912" stroke-opacity="1" stroke-miterlimit="10"/><path fill="#ff738f" d="M 121.1875 143.464844 C 121.371094 144.121094 123.203125 144.183594 125.28125 143.609375 C 127.359375 143.035156 128.898438 142.039062 128.71875 141.382812 C 128.539062 140.730469 126.703125 140.667969 124.625 141.242188 C 122.546875 141.816406 121.007812 142.8125 121.1875 143.464844 Z M 121.1875 143.464844 " fill-opacity="1" fill-rule="nonzero"/><path fill="#ff738f" d="M 97.945312 149.886719 C 98.125 150.542969 99.957031 150.605469 102.039062 150.03125 C 104.117188 149.457031 105.65625 148.460938 105.476562 147.808594 C 105.292969 147.152344 103.460938 147.089844 101.382812 147.664062 C 99.304688 148.238281 97.765625 149.234375 97.945312 149.886719 Z M 97.945312 149.886719 " fill-opacity="1" fill-rule="nonzero"/><path stroke-linecap="round" transform="matrix(0.75, 0, 0, 0.75, 0.0000045, 0)" fill="none" stroke-linejoin="round" d="M 161.791671 185.848971 C 161.791671 185.848971 159.338546 180.06772 161.885421 179.213553 C 164.437505 178.354178 166.614588 184.020845 166.614588 184.020845 " stroke="#6c341e" stroke-width="2.111" stroke-opacity="1" stroke-miterlimit="10"/><path stroke-linecap="round" transform="matrix(0.75, 0, 0, 0.75, 0.0000045, 0)" fill="none" stroke-linejoin="round" d="M 134.859378 193.265638 C 134.859378 193.265638 132.411461 187.479179 134.958336 186.625012 C 137.505211 185.770846 139.682295 191.432304 139.682295 191.432304 " stroke="#6c341e" stroke-width="2.111" stroke-opacity="1" stroke-miterlimit="10"/><path stroke-linecap="round" transform="matrix(0.75, 0, 0, 0.75, 0.0000045, 0)" fill="none" stroke-linejoin="round" d="M 148.958337 203.338555 C 150.026046 205.078138 153.557296 205.13543 155.276046 204.54168 C 157.197921 203.88543 159.354171 202.130222 159.260421 200.489596 " stroke="#ec6863" stroke-width="2.063" stroke-opacity="1" stroke-miterlimit="10"/><path fill="#002545" d="M 208.253906 303.988281 L 211.765625 303.988281 C 219.308594 302.828125 236.988281 298.265625 237.121094 295.914062 C 237.265625 293.285156 212.355469 288.578125 212.355469 288.578125 L 205.066406 293.734375 C 205.066406 293.734375 204.554688 293.4375 204.648438 295.128906 C 204.738281 296.742188 206.757812 302.621094 208.253906 303.988281 Z M 208.253906 303.988281 " fill-opacity="1" fill-rule="nonzero"/><path fill="#f4c6ba" d="M 210.382812 280.746094 L 214.3125 289.761719 C 214.3125 289.761719 211.433594 294.242188 205.066406 293.734375 L 201.140625 284.71875 Z M 210.382812 280.746094 " fill-opacity="1" fill-rule="nonzero"/><path fill="#ef9c9c" d="M 207.929688 286.257812 C 209.15625 285.511719 210.421875 284.632812 211.71875 283.808594 L 210.382812 280.746094 L 201.140625 284.71875 L 203.089844 289.199219 C 204.703125 288.21875 206.316406 287.238281 207.929688 286.257812 Z M 207.929688 286.257812 " fill-opacity="1" fill-rule="nonzero"/><path fill="#004674" d="M 197.296875 286.871094 L 170.144531 232.207031 C 167.734375 227.351562 170.332031 221.363281 175.777344 219.21875 L 181.160156 217.097656 C 186.355469 215.054688 192.089844 217.335938 193.910156 222.171875 L 215.472656 279.542969 Z M 197.296875 286.871094 " fill-opacity="1" fill-rule="nonzero"/><path fill="#004674" d="M 192.003906 215.207031 C 194.484375 220.25 192.929688 226.257812 188.398438 229.140625 L 136.421875 262.195312 C 125.410156 269.199219 112.101562 268.585938 103.988281 252.613281 L 99.613281 244.4375 L 178.039062 209.777344 C 183.21875 207.492188 189.390625 209.890625 192.003906 215.207031 Z M 192.003906 215.207031 " fill-opacity="1" fill-rule="nonzero"/><path fill="#002545" d="M 208.90625 303.988281 C 203.457031 299.792969 189.171875 292.628906 189.171875 292.628906 L 180.746094 295.585938 C 180.746094 295.585938 180.335938 295.160156 179.960938 296.816406 C 179.707031 297.941406 179.804688 301.453125 180.269531 303.984375 L 208.90625 303.984375 Z M 208.90625 303.988281 " fill-opacity="1" fill-rule="nonzero"/><path fill="#f4c6ba" d="M 189.425781 284.558594 L 190.726562 294.304688 C 190.726562 294.304688 186.730469 297.820312 180.746094 295.585938 L 179.445312 285.839844 Z M 189.425781 284.558594 " fill-opacity="1" fill-rule="nonzero"/><path fill="#ef9c9c" d="M 185.554688 289.183594 C 186.9375 288.800781 188.394531 288.300781 189.867188 287.863281 L 189.425781 284.558594 L 179.445312 285.839844 L 180.09375 290.683594 C 181.910156 290.183594 183.734375 289.683594 185.554688 289.183594 Z M 185.554688 289.183594 " fill-opacity="1" fill-rule="nonzero"/><path fill="#00739c" d="M 175.109375 286 L 169.503906 225.21875 C 169.003906 219.824219 173.589844 215.175781 179.441406 215.136719 L 185.226562 215.101562 C 190.808594 215.070312 195.335938 219.265625 195.285156 224.433594 L 194.703125 285.71875 Z M 175.109375 286 " fill-opacity="1" fill-rule="nonzero"/><path fill="#00739c" d="M 194.121094 219.78125 C 196.285156 224.96875 194.363281 230.867188 189.664062 233.464844 L 135.949219 264.863281 C 128.164062 269.160156 118.320312 267.726562 112.699219 265.617188 C 108.898438 264.191406 106.226562 256.914062 103.960938 251.675781 L 100.101562 243.246094 L 180.519531 213.5 C 185.828125 211.535156 191.839844 214.3125 194.121094 219.78125 Z M 194.121094 219.78125 " fill-opacity="1" fill-rule="nonzero"/><path fill="#f4c6ba" d="M 152.40625 205.296875 L 151.945312 205.886719 C 149.988281 208.398438 146.367188 208.84375 143.859375 206.886719 L 129.640625 195.796875 C 127.132812 193.839844 126.683594 190.21875 128.640625 187.710938 L 129.101562 187.121094 C 131.058594 184.613281 134.679688 184.164062 137.1875 186.121094 L 151.40625 197.210938 C 153.917969 199.167969 154.363281 202.789062 152.40625 205.296875 Z M 152.40625 205.296875 " fill-opacity="1" fill-rule="nonzero"/><path fill="#f4c6ba" d="M 143.699219 206.332031 C 141.335938 203.386719 141.804688 199.085938 144.75 196.722656 L 182.746094 169.113281 C 186.21875 166.550781 188.742188 167 189.839844 168.34375 C 191.53125 170.40625 190.601562 172.78125 187.382812 176.109375 L 153.308594 207.382812 C 150.363281 209.746094 146.0625 209.277344 143.699219 206.332031 Z M 143.699219 206.332031 " fill-opacity="1" fill-rule="nonzero"/><path fill="#ef9c9c" d="M 128.871094 187.414062 C 130.957031 184.742188 134.8125 184.265625 137.484375 186.351562 L 145.796875 192.832031 C 144.402344 196.828125 142.605469 200.640625 140.65625 204.386719 L 129.9375 196.027344 C 127.265625 193.941406 126.789062 190.085938 128.871094 187.414062 Z M 128.871094 187.414062 " fill-opacity="1" fill-rule="nonzero"/><path fill="#21b4e3" d="M 116.792969 172.097656 C 122.582031 167.539062 137.46875 181.777344 141.273438 185.09375 C 145.078125 188.40625 146.519531 187.132812 146.5 188.753906 C 146.484375 190.371094 140.148438 201.171875 135.789062 203.023438 C 131.429688 204.875 122.171875 192.757812 119.011719 188.199219 C 115.851562 183.644531 109.648438 177.726562 116.792969 172.097656 Z M 116.792969 172.097656 " fill-opacity="1" fill-rule="nonzero"/><path fill="#f4c6ba" d="M 182.515625 166.992188 C 182.445312 165.796875 182.332031 164.546875 182.445312 163.347656 C 182.542969 162.269531 182.894531 161.007812 183.5 160.097656 C 184.261719 158.953125 185.492188 157.992188 186.378906 156.929688 C 186.746094 156.480469 187.132812 156.007812 187.667969 155.789062 C 188.203125 155.566406 188.933594 155.703125 189.175781 156.230469 C 189.277344 156.457031 189.273438 156.710938 189.269531 156.957031 C 189.265625 157.210938 189.257812 157.472656 189.164062 157.710938 C 189.046875 157.992188 188.8125 158.214844 188.757812 158.519531 C 189.070312 158.636719 189.574219 158.304688 189.917969 158.261719 C 190.417969 158.195312 190.917969 158.289062 191.296875 158.632812 C 192.023438 159.292969 192.089844 161.171875 192.296875 162.058594 C 192.664062 163.601562 192.777344 166.316406 193.140625 167.859375 C 193.871094 170.9375 191.167969 173.601562 188.097656 174.21875 C 184.085938 175.023438 182.726562 170.703125 182.515625 166.992188 Z M 182.515625 166.992188 " fill-opacity="1" fill-rule="nonzero"/><path fill="#86bf5d" d="M 189.664062 157.808594 C 188.09375 157.808594 186.824219 159.082031 186.824219 160.652344 L 186.824219 165.21875 C 186.824219 169.535156 190.320312 173.035156 194.636719 173.035156 L 200.117188 173.035156 L 200.117188 157.808594 Z M 189.664062 160.246094 L 197.683594 160.246094 L 197.683594 170.597656 L 194.636719 170.597656 C 191.671875 170.597656 189.257812 168.1875 189.257812 165.21875 L 189.257812 160.652344 C 189.257812 160.429688 189.441406 160.246094 189.664062 160.246094 " fill-opacity="1" fill-rule="nonzero"/><path fill="#86bf5d" d="M 193.945312 156.957031 L 193.945312 168.449219 C 193.945312 172.320312 195.769531 175.699219 198.488281 177.566406 L 209.980469 177.566406 C 212.699219 175.699219 214.523438 172.320312 214.523438 168.449219 L 214.523438 156.957031 Z M 193.945312 156.957031 " fill-opacity="1" fill-rule="nonzero"/><path fill="#00925e" d="M 193.945312 165.773438 L 193.945312 168.449219 C 193.945312 172.320312 195.769531 175.699219 198.488281 177.566406 L 209.980469 177.566406 C 210.765625 177.03125 211.46875 176.363281 212.082031 175.597656 C 205.023438 175.976562 197.953125 172.324219 193.945312 165.773438 Z M 193.945312 165.773438 " fill-opacity="1" fill-rule="nonzero"/><path fill="#d0d2d3" d="M 206.566406 136.28125 C 206.457031 137.347656 206.363281 138.496094 206.902344 139.425781 C 207.28125 140.074219 207.921875 140.523438 208.382812 141.113281 C 209.609375 142.683594 209.238281 145.25 207.613281 146.40625 C 206.363281 147.292969 205 147.867188 204.945312 149.644531 C 204.925781 150.308594 205.117188 150.96875 205.417969 151.5625 C 205.589844 151.90625 205.800781 152.242188 205.863281 152.625 C 205.941406 153.097656 205.773438 153.585938 205.503906 153.984375 C 205.230469 154.378906 204.863281 154.699219 204.5 155.015625 C 204.78125 153.859375 204.980469 152.925781 204.28125 151.859375 C 203.992188 151.417969 203.597656 151.039062 203.382812 150.554688 C 202.792969 149.234375 203.59375 147.484375 204.320312 146.363281 C 204.628906 145.886719 205.007812 145.445312 205.195312 144.910156 C 205.691406 143.464844 204.640625 141.976562 204.425781 140.460938 C 204.195312 138.808594 205.089844 137.058594 206.566406 136.28125 Z M 206.566406 136.28125 " fill-opacity="1" fill-rule="nonzero"/><path fill="#d0d2d3" d="M 201.582031 143.980469 C 202.429688 145.390625 202.183594 147.144531 201.042969 148.273438 C 200.578125 148.734375 200.371094 149.144531 200.433594 149.828125 C 200.515625 150.730469 201.273438 151.082031 201.523438 151.867188 C 201.585938 152.074219 201.585938 152.292969 201.585938 152.511719 C 201.582031 152.761719 201.578125 153.015625 201.503906 153.257812 C 201.382812 153.65625 201.082031 153.972656 200.792969 154.273438 C 200.972656 153.730469 200.9375 153.117188 200.691406 152.601562 C 200.304688 151.78125 199.753906 151.113281 199.503906 150.222656 C 199.289062 149.441406 199.289062 148.566406 199.691406 147.867188 C 199.832031 147.621094 200.015625 147.40625 200.171875 147.171875 C 200.742188 146.324219 200.949219 145.238281 200.730469 144.242188 C 200.578125 143.53125 200.21875 142.839844 200.316406 142.121094 C 200.609375 142.8125 201.195312 143.335938 201.582031 143.980469 Z M 201.582031 143.980469 " fill-opacity="1" fill-rule="nonzero"/><path fill="#26a9e0" d="M 114.992188 186.054688 C 114.992188 186.054688 119.15625 186.667969 120.804688 185.992188 L 122.0625 195.164062 L 120.027344 197.585938 L 116.058594 195.742188 Z M 114.992188 186.054688 " fill-opacity="1" fill-rule="nonzero"/><path fill="#7dd2f1" d="M 135.222656 233.355469 C 132.023438 235.488281 128.824219 237.621094 125.628906 239.753906 C 119.21875 244.023438 111.628906 249.839844 103.847656 251.1875 C 96.996094 252.371094 97.867188 241.335938 97.597656 236.921875 C 97.230469 230.898438 96.863281 224.875 96.496094 218.851562 C 95.828125 207.847656 95.160156 196.84375 94.488281 185.84375 C 94.378906 184.007812 94.265625 182.171875 94.152344 180.335938 C 93.699219 172.882812 99.519531 166.164062 107.925781 165.550781 C 117.609375 164.84375 124.242188 168.171875 126.054688 175.414062 C 127.707031 182.011719 129.359375 188.613281 131.015625 195.214844 C 132.515625 201.214844 134.019531 207.210938 135.519531 213.210938 C 136.804688 218.347656 140.492188 220.34375 144.019531 224.09375 C 144.386719 224.484375 144.761719 224.90625 144.871094 225.433594 C 145.097656 226.570312 144.003906 227.5 143.039062 228.144531 C 140.433594 229.882812 137.828125 231.617188 135.222656 233.355469 Z M 135.222656 233.355469 " fill-opacity="1" fill-rule="nonzero"/><path fill="#26a9e0" d="M 114.992188 186.074219 C 114.992188 186.074219 120.308594 186.855469 122.410156 185.992188 L 124.015625 197.691406 L 121.417969 200.78125 L 116.351562 198.433594 Z M 114.992188 186.074219 " fill-opacity="1" fill-rule="nonzero"/><path fill="#f4c6ba" d="M 85.960938 219.101562 L 84.625 218.632812 C 81.273438 217.457031 79.507812 213.785156 80.683594 210.433594 L 86.867188 192.8125 C 88.042969 189.460938 91.714844 187.695312 95.066406 188.871094 L 96.402344 189.339844 C 99.753906 190.515625 101.519531 194.1875 100.34375 197.542969 L 94.160156 215.160156 C 92.984375 218.511719 89.316406 220.277344 85.960938 219.101562 Z M 85.960938 219.101562 " fill-opacity="1" fill-rule="nonzero"/><path fill="#f4c6ba" d="M 89.757812 206.503906 C 86.066406 205.285156 81.96875 207.359375 80.613281 211.128906 C 80.613281 211.128906 65.277344 262.570312 65.191406 263.109375 C 67.613281 264.386719 70.164062 265.390625 72.753906 266.292969 C 72.992188 265.859375 93.984375 215.53125 93.984375 215.53125 C 95.34375 211.761719 93.449219 207.71875 89.757812 206.503906 Z M 89.757812 206.503906 " fill-opacity="1" fill-rule="nonzero"/><path fill="#ef9c9c" d="M 91.96875 208.929688 C 93.25 209.433594 94.53125 209.941406 95.816406 210.441406 L 100.203125 197.9375 C 101.457031 194.367188 99.578125 190.457031 96.007812 189.203125 L 95.460938 189.011719 C 91.890625 187.757812 87.980469 189.636719 86.726562 193.210938 L 82.5625 205.078125 C 85.808594 206.035156 89.066406 207.777344 91.96875 208.929688 Z M 91.96875 208.929688 " fill-opacity="1" fill-rule="nonzero"/><path fill="#21b4e3" d="M 107.109375 171.671875 C 113.691406 175.972656 104.363281 195.878906 102.308594 200.855469 C 100.253906 205.832031 102.03125 206.855469 100.386719 207.390625 C 98.746094 207.925781 85.667969 205.199219 82.308594 201.421875 C 78.945312 197.640625 88.046875 184.152344 91.582031 179.40625 C 95.113281 174.65625 98.984375 166.363281 107.109375 171.671875 Z M 107.109375 171.671875 " fill-opacity="1" fill-rule="nonzero"/><path fill="#f4c6ba" d="M 55.375 262.90625 L 73.429688 260.246094 L 73.429688 266.5625 L 52.003906 266.5625 C 52.003906 264.742188 53.433594 263.195312 55.375 262.90625 Z M 55.375 262.90625 " fill-opacity="1" fill-rule="nonzero"/><path fill="#ef9c9c" d="M 192.226562 164.660156 C 192.113281 164.117188 192 163.574219 191.886719 163.035156 C 191.683594 162.050781 191.386719 160.945312 190.492188 160.484375 C 189.960938 160.210938 189.3125 160.238281 188.75 160.4375 C 188.183594 160.636719 187.691406 160.996094 187.226562 161.367188 C 186.445312 161.992188 185.6875 162.714844 185.375 163.660156 C 185.007812 164.777344 185.324219 165.996094 185.757812 167.085938 C 186.273438 168.394531 186.957031 169.636719 187.78125 170.777344 C 188.066406 171.171875 188.390625 171.570312 188.839844 171.75 C 189.109375 171.859375 189.40625 171.878906 189.699219 171.890625 C 190.101562 171.902344 190.511719 171.890625 190.894531 171.769531 C 191.808594 171.480469 192.445312 170.601562 192.679688 169.671875 C 192.914062 168.742188 192.808594 167.761719 192.648438 166.816406 C 192.527344 166.09375 192.378906 165.375 192.226562 164.660156 Z M 192.226562 164.660156 " fill-opacity="1" fill-rule="nonzero"/><path fill="#f4c6ba" d="M 192.226562 164.332031 C 192.113281 163.828125 192 163.328125 191.886719 162.828125 C 191.679688 161.917969 191.382812 160.894531 190.492188 160.46875 C 189.957031 160.214844 189.308594 160.242188 188.742188 160.425781 C 188.179688 160.613281 187.683594 160.941406 187.214844 161.289062 C 186.4375 161.863281 185.675781 162.535156 185.363281 163.410156 C 184.996094 164.4375 185.3125 165.566406 185.746094 166.574219 C 186.261719 167.785156 186.945312 168.9375 187.773438 169.992188 C 188.058594 170.355469 188.382812 170.722656 188.832031 170.890625 C 189.101562 170.992188 189.402344 171.007812 189.691406 171.019531 C 190.097656 171.027344 190.507812 171.019531 190.890625 170.90625 C 191.808594 170.640625 192.445312 169.828125 192.679688 168.96875 C 192.910156 168.105469 192.804688 167.203125 192.648438 166.328125 C 192.527344 165.65625 192.378906 164.992188 192.226562 164.332031 Z M 192.226562 164.332031 " fill-opacity="1" fill-rule="nonzero"/><path fill="#dadbdc" d="M 192.582031 263.046875 L 277.773438 263.046875 L 277.773438 266.675781 L 192.582031 266.675781 Z M 192.582031 263.046875 " fill-opacity="1" fill-rule="nonzero"/><path fill="#dadbdc" d="M 285.917969 216.257812 L 288.179688 218.054688 L 277.773438 266.675781 L 206.160156 266.675781 L 217.378906 216.257812 Z M 285.917969 216.257812 " fill-opacity="1" fill-rule="nonzero"/><path fill="#c2c4c5" d="M 288.179688 218.054688 L 277.773438 266.675781 L 209.617188 266.675781 L 220.015625 218.054688 Z M 288.179688 218.054688 " fill-opacity="1" fill-rule="nonzero"/><path fill="#afb1b3" d="M 268.355469 262.667969 C 257.6875 261.132812 247.015625 259.621094 236.34375 258.101562 C 231.152344 257.363281 225.964844 256.621094 220.773438 255.871094 C 217.761719 255.4375 214.945312 255.40625 212.136719 254.898438 L 209.617188 266.675781 L 277.773438 266.675781 L 278.324219 264.097656 C 275 263.621094 271.679688 263.148438 268.355469 262.667969 Z M 268.355469 262.667969 " fill-opacity="1" fill-rule="nonzero"/><path fill="#ffffff" d="M 256.910156 235.8125 C 257.257812 236.148438 257.558594 236.523438 257.8125 236.9375 C 258.066406 237.355469 258.265625 237.804688 258.417969 238.289062 C 258.570312 238.773438 258.667969 239.28125 258.710938 239.8125 C 258.753906 240.34375 258.742188 240.890625 258.671875 241.449219 C 258.605469 242.011719 258.484375 242.574219 258.3125 243.140625 C 258.136719 243.707031 257.910156 244.265625 257.636719 244.816406 C 257.359375 245.371094 257.039062 245.902344 256.675781 246.417969 C 256.308594 246.933594 255.90625 247.421875 255.464844 247.878906 C 255.023438 248.339844 254.554688 248.761719 254.050781 249.144531 C 253.550781 249.53125 253.03125 249.871094 252.492188 250.167969 C 251.949219 250.464844 251.402344 250.710938 250.839844 250.90625 C 250.28125 251.105469 249.722656 251.246094 249.167969 251.335938 C 248.609375 251.425781 248.0625 251.457031 247.53125 251.4375 C 246.996094 251.414062 246.484375 251.335938 245.996094 251.203125 C 245.507812 251.070312 245.050781 250.886719 244.625 250.648438 C 244.199219 250.414062 243.8125 250.128906 243.464844 249.792969 C 243.117188 249.460938 242.820312 249.085938 242.566406 248.667969 C 242.3125 248.253906 242.109375 247.804688 241.957031 247.320312 C 241.804688 246.835938 241.710938 246.328125 241.667969 245.796875 C 241.625 245.265625 241.636719 244.71875 241.703125 244.15625 C 241.769531 243.597656 241.890625 243.035156 242.066406 242.46875 C 242.238281 241.902344 242.464844 241.339844 242.738281 240.789062 C 243.015625 240.238281 243.335938 239.703125 243.699219 239.191406 C 244.066406 238.675781 244.46875 238.1875 244.910156 237.726562 C 245.351562 237.269531 245.824219 236.847656 246.324219 236.460938 C 246.824219 236.078125 247.34375 235.734375 247.882812 235.441406 C 248.425781 235.144531 248.976562 234.898438 249.535156 234.699219 C 250.09375 234.503906 250.652344 234.359375 251.210938 234.273438 C 251.765625 234.183594 252.3125 234.148438 252.84375 234.171875 C 253.378906 234.195312 253.890625 234.269531 254.378906 234.402344 C 254.867188 234.535156 255.324219 234.71875 255.75 234.957031 C 256.179688 235.195312 256.5625 235.480469 256.910156 235.8125 Z M 256.910156 235.8125 " fill-opacity="1" fill-rule="nonzero"/><path fill="#0096c8" d="M 295.253906 211.738281 L 289.925781 217.542969 L 290.882812 218.832031 L 297.828125 213.949219 Z M 295.253906 211.738281 " fill-opacity="1" fill-rule="nonzero"/><path fill="#0096c8" d="M 293.203125 206.914062 L 288.253906 215.609375 L 289.359375 216.238281 L 295.828125 208.40625 Z M 293.203125 206.914062 " fill-opacity="1" fill-rule="nonzero"/><path fill="#0096c8" d="M 287.011719 208.839844 L 289.03125 209.550781 L 286.847656 213.84375 L 285.425781 213.34375 Z M 287.011719 208.839844 " fill-opacity="1" fill-rule="nonzero"/><path fill="#0096c8" d="M 294.417969 185.386719 C 294.417969 185.863281 294.382812 186.339844 294.3125 186.816406 C 294.242188 187.292969 294.136719 187.761719 293.992188 188.230469 C 293.851562 188.699219 293.675781 189.164062 293.464844 189.621094 C 293.253906 190.078125 293.011719 190.527344 292.734375 190.96875 C 292.457031 191.410156 292.148438 191.839844 291.808594 192.261719 C 291.464844 192.683594 291.09375 193.09375 290.691406 193.488281 C 290.289062 193.886719 289.855469 194.269531 289.398438 194.640625 C 288.9375 195.007812 288.453125 195.363281 287.941406 195.699219 C 287.429688 196.035156 286.890625 196.359375 286.332031 196.660156 C 285.773438 196.964844 285.191406 197.246094 284.589844 197.511719 C 283.984375 197.777344 283.363281 198.023438 282.726562 198.25 C 282.085938 198.472656 281.433594 198.679688 280.765625 198.859375 C 280.09375 199.042969 279.414062 199.203125 278.71875 199.34375 C 278.027344 199.480469 277.324219 199.597656 276.613281 199.691406 C 275.902344 199.785156 275.1875 199.855469 274.46875 199.902344 C 273.746094 199.949219 273.023438 199.972656 272.300781 199.972656 C 271.574219 199.972656 270.851562 199.949219 270.132812 199.902344 C 269.410156 199.855469 268.695312 199.785156 267.984375 199.691406 C 267.273438 199.597656 266.570312 199.480469 265.878906 199.34375 C 265.183594 199.203125 264.503906 199.042969 263.835938 198.859375 C 263.164062 198.679688 262.511719 198.472656 261.871094 198.25 C 261.234375 198.023438 260.613281 197.777344 260.011719 197.511719 C 259.410156 197.246094 258.828125 196.964844 258.265625 196.660156 C 257.707031 196.359375 257.171875 196.035156 256.660156 195.699219 C 256.148438 195.363281 255.660156 195.007812 255.203125 194.640625 C 254.742188 194.269531 254.3125 193.886719 253.90625 193.488281 C 253.503906 193.09375 253.132812 192.683594 252.792969 192.261719 C 252.449219 191.839844 252.140625 191.410156 251.863281 190.96875 C 251.585938 190.527344 251.34375 190.078125 251.132812 189.621094 C 250.921875 189.164062 250.746094 188.699219 250.605469 188.230469 C 250.464844 187.761719 250.359375 187.292969 250.285156 186.816406 C 250.214844 186.339844 250.179688 185.863281 250.179688 185.386719 C 250.179688 184.910156 250.214844 184.433594 250.285156 183.957031 C 250.359375 183.480469 250.464844 183.007812 250.605469 182.542969 C 250.746094 182.074219 250.921875 181.609375 251.132812 181.152344 C 251.34375 180.695312 251.585938 180.246094 251.863281 179.804688 C 252.140625 179.363281 252.449219 178.933594 252.792969 178.511719 C 253.132812 178.089844 253.503906 177.679688 253.90625 177.285156 C 254.3125 176.886719 254.742188 176.503906 255.203125 176.132812 C 255.660156 175.765625 256.148438 175.410156 256.660156 175.074219 C 257.171875 174.734375 257.707031 174.414062 258.265625 174.113281 C 258.828125 173.808594 259.410156 173.523438 260.011719 173.261719 C 260.613281 172.996094 261.234375 172.75 261.871094 172.523438 C 262.511719 172.300781 263.164062 172.09375 263.835938 171.914062 C 264.503906 171.730469 265.183594 171.570312 265.878906 171.429688 C 266.570312 171.292969 267.273438 171.175781 267.984375 171.082031 C 268.695312 170.988281 269.410156 170.917969 270.132812 170.871094 C 270.851562 170.824219 271.574219 170.800781 272.300781 170.800781 C 273.023438 170.800781 273.746094 170.824219 274.46875 170.871094 C 275.1875 170.917969 275.902344 170.988281 276.613281 171.082031 C 277.324219 171.175781 278.027344 171.292969 278.71875 171.429688 C 279.414062 171.570312 280.09375 171.730469 280.765625 171.914062 C 281.433594 172.09375 282.085938 172.300781 282.726562 172.523438 C 283.363281 172.75 283.984375 172.996094 284.589844 173.261719 C 285.191406 173.523438 285.773438 173.808594 286.332031 174.113281 C 286.890625 174.414062 287.425781 174.734375 287.941406 175.074219 C 288.453125 175.410156 288.9375 175.765625 289.398438 176.132812 C 289.855469 176.503906 290.289062 176.886719 290.691406 177.285156 C 291.09375 177.679688 291.464844 178.089844 291.808594 178.511719 C 292.148438 178.933594 292.457031 179.363281 292.734375 179.804688 C 293.011719 180.246094 293.253906 180.695312 293.464844 181.152344 C 293.675781 181.609375 293.851562 182.074219 293.992188 182.542969 C 294.136719 183.007812 294.242188 183.480469 294.3125 183.957031 C 294.382812 184.433594 294.417969 184.910156 294.417969 185.386719 Z M 294.417969 185.386719 " fill-opacity="1" fill-rule="nonzero"/><path fill="#0096c8" d="M 259.40625 195.160156 L 246.976562 211.714844 L 272.300781 199.972656 Z M 259.40625 195.160156 " fill-opacity="1" fill-rule="nonzero"/><path fill="#ffffff" d="M 286.976562 185.386719 C 286.976562 185.855469 286.886719 186.308594 286.707031 186.746094 C 286.523438 187.179688 286.269531 187.5625 285.9375 187.894531 C 285.605469 188.226562 285.21875 188.484375 284.785156 188.664062 C 284.351562 188.84375 283.898438 188.933594 283.425781 188.933594 C 282.957031 188.933594 282.503906 188.84375 282.070312 188.664062 C 281.632812 188.484375 281.25 188.226562 280.917969 187.894531 C 280.585938 187.5625 280.328125 187.179688 280.148438 186.746094 C 279.96875 186.308594 279.878906 185.855469 279.878906 185.386719 C 279.878906 184.914062 279.96875 184.464844 280.148438 184.027344 C 280.328125 183.59375 280.585938 183.210938 280.917969 182.878906 C 281.25 182.542969 281.632812 182.289062 282.070312 182.109375 C 282.503906 181.929688 282.957031 181.839844 283.425781 181.839844 C 283.898438 181.839844 284.351562 181.929688 284.785156 182.109375 C 285.21875 182.289062 285.605469 182.542969 285.9375 182.878906 C 286.269531 183.210938 286.523438 183.59375 286.707031 184.027344 C 286.886719 184.464844 286.976562 184.914062 286.976562 185.386719 Z M 286.976562 185.386719 " fill-opacity="1" fill-rule="nonzero"/><path fill="#ffffff" d="M 275.847656 185.386719 C 275.847656 185.855469 275.757812 186.308594 275.578125 186.746094 C 275.398438 187.179688 275.140625 187.5625 274.808594 187.894531 C 274.476562 188.226562 274.09375 188.484375 273.65625 188.664062 C 273.222656 188.84375 272.769531 188.933594 272.300781 188.933594 C 271.828125 188.933594 271.375 188.84375 270.941406 188.664062 C 270.507812 188.484375 270.125 188.226562 269.789062 187.894531 C 269.457031 187.5625 269.203125 187.179688 269.019531 186.746094 C 268.839844 186.308594 268.75 185.855469 268.75 185.386719 C 268.75 184.914062 268.839844 184.464844 269.019531 184.027344 C 269.203125 183.59375 269.457031 183.210938 269.789062 182.878906 C 270.125 182.542969 270.507812 182.289062 270.941406 182.109375 C 271.375 181.929688 271.828125 181.839844 272.300781 181.839844 C 272.769531 181.839844 273.222656 181.929688 273.65625 182.109375 C 274.09375 182.289062 274.476562 182.542969 274.808594 182.878906 C 275.140625 183.210938 275.398438 183.59375 275.578125 184.027344 C 275.757812 184.464844 275.847656 184.914062 275.847656 185.386719 Z M 275.847656 185.386719 " fill-opacity="1" fill-rule="nonzero"/><path fill="#ffffff" d="M 264.71875 185.386719 C 264.71875 185.855469 264.628906 186.308594 264.449219 186.746094 C 264.269531 187.179688 264.011719 187.5625 263.679688 187.894531 C 263.347656 188.226562 262.964844 188.484375 262.53125 188.664062 C 262.09375 188.84375 261.640625 188.933594 261.171875 188.933594 C 260.703125 188.933594 260.25 188.84375 259.8125 188.664062 C 259.378906 188.484375 258.996094 188.226562 258.664062 187.894531 C 258.328125 187.5625 258.074219 187.179688 257.894531 186.746094 C 257.714844 186.308594 257.625 185.855469 257.625 185.386719 C 257.625 184.914062 257.714844 184.464844 257.894531 184.027344 C 258.074219 183.59375 258.328125 183.210938 258.664062 182.878906 C 258.996094 182.542969 259.378906 182.289062 259.8125 182.109375 C 260.25 181.929688 260.703125 181.839844 261.171875 181.839844 C 261.640625 181.839844 262.09375 181.929688 262.53125 182.109375 C 262.964844 182.289062 263.347656 182.542969 263.679688 182.878906 C 264.011719 183.210938 264.269531 183.59375 264.449219 184.027344 C 264.628906 184.464844 264.71875 184.914062 264.71875 185.386719 Z M 264.71875 185.386719 " fill-opacity="1" fill-rule="nonzero"/><path fill="#26a9e0" d="M 215.984375 183.234375 L 215.984375 199.308594 C 215.984375 199.507812 216.050781 199.6875 216.144531 199.847656 L 224.058594 191.628906 Z M 215.984375 183.234375 " fill-opacity="1" fill-rule="nonzero"/><path fill="#26a9e0" d="M 234.460938 191.632812 L 242.378906 199.847656 C 242.472656 199.6875 242.539062 199.507812 242.539062 199.308594 L 242.539062 183.238281 Z M 234.460938 191.632812 " fill-opacity="1" fill-rule="nonzero"/><path fill="#26a9e0" d="M 226.75 191.632812 L 229.257812 194.230469 L 231.765625 191.632812 L 233.113281 190.222656 L 241.191406 181.839844 L 217.332031 181.839844 L 225.402344 190.222656 Z M 226.75 191.632812 " fill-opacity="1" fill-rule="nonzero"/><path fill="#26a9e0" d="M 233.113281 193.027344 L 229.257812 197.027344 L 225.402344 193.027344 L 218.28125 200.425781 L 240.242188 200.425781 Z M 233.113281 193.027344 " fill-opacity="1" fill-rule="nonzero"/><path fill="#26a9e0" d="M 236.621094 200.425781 L 226.21875 200.425781 L 238.5 209.6875 " fill-opacity="1" fill-rule="nonzero"/><path fill="#ffffff" d="M 43.09375 270.902344 L 327.710938 270.902344 L 327.710938 303.988281 L 43.09375 303.988281 Z M 43.09375 270.902344 " fill-opacity="1" fill-rule="nonzero"/><path stroke-linecap="round" transform="matrix(0.75, 0, 0, 0.75, 0.0000045, 0)" fill="none" stroke-linejoin="round" d="M 442.781273 392.484401 L 49.244789 392.484401 " stroke="#ffffff" stroke-width="1.136" stroke-opacity="1" stroke-miterlimit="10"/><path fill="#26a9e0" d="M 347.417969 277.476562 L 27.582031 277.476562 C 24.78125 277.476562 22.511719 275.207031 22.511719 272.40625 L 22.511719 271.746094 C 22.511719 268.945312 24.78125 266.671875 27.582031 266.671875 L 347.417969 266.671875 C 350.21875 266.671875 352.492188 268.945312 352.492188 271.746094 L 352.492188 272.40625 C 352.488281 275.207031 350.21875 277.476562 347.417969 277.476562 Z M 347.417969 277.476562 " fill-opacity="1" fill-rule="nonzero"/></svg>